<?xml version="1.0" encoding="utf-8"?>
<!-- Generator: Adobe Illustrator 16.0.0, SVG Export Plug-In . SVG Version: 6.00 Build 0)  -->
<!DOCTYPE svg PUBLIC "-//W3C//DTD SVG 1.1//EN" "http://www.w3.org/Graphics/SVG/1.1/DTD/svg11.dtd">
<svg version="1.1" id="Capa_1" xmlns="http://www.w3.org/2000/svg" xmlns:xlink="http://www.w3.org/1999/xlink" x="0px" y="0px"
	 width="142px" height="142px" viewBox="235 325 142 142" enable-background="new 235 325 142 142" xml:space="preserve">
<g>
	<g>
		<path fill="#EE3B68" d="M361.675,342.442H250.326c-4.315,0-7.826,3.51-7.826,7.826v75.558c0,4.315,3.51,7.826,7.826,7.826h37.66
			l-1.523,12.186h-6.312c-1.027,0-1.86,0.833-1.86,1.86c0,1.028,0.833,1.86,1.86,1.86h51.698c1.028,0,1.86-0.832,1.86-1.86
			c0-1.027-0.832-1.86-1.86-1.86h-6.311l-1.523-12.186h37.66c4.314,0,7.825-3.511,7.825-7.826v-75.558
			C369.5,345.952,365.989,342.442,361.675,342.442z M290.212,445.837l1.523-12.186h6.847l0.671,2.687
			c0.775,3.101,3.55,5.267,6.746,5.267c3.197,0,5.971-2.166,6.746-5.267l0.672-2.687h6.847l1.523,12.186H290.212z M302.417,433.651
			h7.165l-0.445,1.783c-0.36,1.442-1.65,2.449-3.137,2.449c-1.487,0-2.776-1.007-3.137-2.449L302.417,433.651z M365.779,425.825
			L365.779,425.825c0,2.264-1.842,4.105-4.104,4.105H250.326c-2.264,0-4.105-1.842-4.105-4.105v-75.558
			c0-2.264,1.841-4.105,4.105-4.105h111.349c2.263,0,4.104,1.841,4.104,4.105V425.825L365.779,425.825z"/>
	</g>
</g>
<g>
	<g>
		<path fill="#EE3B68" d="M347.756,350.396h-95.442c-1.028,0-1.86,0.833-1.86,1.86v71.581c0,1.028,0.833,1.86,1.86,1.86h3.977
			c1.028,0,1.86-0.832,1.86-1.86c0-1.027-0.833-1.86-1.86-1.86h-2.117v-67.86h93.582c1.027,0,1.86-0.833,1.86-1.86
			C349.616,351.228,348.783,350.396,347.756,350.396z"/>
	</g>
</g>
<g>
	<g>
		<path fill="#EE3B68" d="M359.687,350.396h-3.978c-1.027,0-1.86,0.833-1.86,1.86c0,1.027,0.833,1.86,1.86,1.86h2.117v67.86h-93.582
			c-1.027,0-1.86,0.833-1.86,1.86c0,1.028,0.833,1.86,1.86,1.86h95.441c1.028,0,1.86-0.832,1.86-1.86v-71.581
			C361.547,351.228,360.714,350.396,359.687,350.396z"/>
	</g>
</g>
<g>
	<g>
		<path fill="#EE3B68" d="M331.325,370.993c-0.334-0.427-0.838-0.687-1.38-0.711l-43.744-1.989
			c-0.034-0.001-0.068-0.002-0.102-0.002c-0.259-0.85-0.806-1.587-1.547-2.081l-5.357-3.572c-0.854-0.569-2.01-0.339-2.58,0.517
			c-0.57,0.855-0.339,2.01,0.516,2.58l5.357,3.571c0.025,0.017,0.044,0.042,0.052,0.072l6.824,23.882
			c0.212,0.745,0.563,1.414,1.013,1.992l-2.497,4.993c-0.601,1.202-0.538,2.602,0.168,3.745c0.256,0.414,0.581,0.768,0.954,1.05
			c-0.488,0.854-0.77,1.84-0.77,2.892c0,3.219,2.619,5.837,5.837,5.837c3.219,0,5.837-2.618,5.837-5.837
			c0-0.746-0.142-1.46-0.398-2.116h16.96c-0.256,0.656-0.398,1.37-0.398,2.116c0,3.219,2.619,5.837,5.837,5.837
			c3.219,0,5.837-2.618,5.837-5.837c0-0.934-0.221-1.816-0.612-2.6c0.375-0.34,0.612-0.83,0.612-1.377
			c0-1.027-0.832-1.86-1.859-1.86h-34.563c-0.026,0-0.071,0-0.109-0.061s-0.017-0.101-0.005-0.125l2.3-4.6
			c0.468,0.121,0.956,0.186,1.455,0.186c0.23,0,0.462-0.014,0.696-0.041l26.141-3.075c3.376-0.397,6.093-2.904,6.759-6.237
			l3.127-15.635C331.791,371.972,331.66,371.42,331.325,370.993z M321.907,405.814c1.167,0,2.116,0.949,2.116,2.116
			s-0.949,2.116-2.116,2.116s-2.116-0.949-2.116-2.116S320.74,405.814,321.907,405.814z M294.07,405.814
			c1.167,0,2.116,0.949,2.116,2.116s-0.949,2.116-2.116,2.116s-2.116-0.949-2.116-2.116S292.903,405.814,294.07,405.814z
			 M289.508,380.221l-2.331-8.159l7.438,0.338l1.29,7.821H289.508z M295.223,393.757c-1.037,0.122-1.996-0.518-2.282-1.521
			l-2.37-8.295h5.946l1.563,9.479L295.223,393.757z M306.128,392.474l-4.349,0.512l-1.491-9.044h5.84V392.474z M306.128,380.221
			h-6.454l-1.261-7.648l7.715,0.351V380.221z M315.55,391.366l-5.701,0.671v-8.095h6.373L315.55,391.366z M316.559,380.221h-6.71
			v-7.128l7.325,0.333L316.559,380.221z M324.909,387.41c-0.35,1.749-1.774,3.063-3.546,3.271l-2.038,0.24l0.632-6.98h5.646
			L324.909,387.41z M326.347,380.221h-6.052l0.6-6.626l6.717,0.305L326.347,380.221z"/>
	</g>
</g>
</svg>
