<?xml version="1.0" encoding="UTF-8"?>
<!-- Generator: Adobe Illustrator 16.0.0, SVG Export Plug-In . SVG Version: 6.00 Build 0)  -->
<!DOCTYPE svg PUBLIC "-//W3C//DTD SVG 1.1//EN" "http://www.w3.org/Graphics/SVG/1.1/DTD/svg11.dtd">
<svg version="1.1" id="Layer_1" xmlns="http://www.w3.org/2000/svg" xmlns:xlink="http://www.w3.org/1999/xlink" x="0px" y="0px" width="142px" height="142px" viewBox="185 185 142 142" enable-background="new 185 185 142 142" xml:space="preserve">
<g id="Outline">
	<path fill="#FFFFFF" d="M276.056,232.896l9.275-7.42l-2.506-3.131l-6.77,5.415v-3.849c0-1.107-0.897-2.005-2.006-2.005h-36.1   c-1.108,0-2.006,0.898-2.006,2.005v3.85l-6.769-5.415l-2.507,3.13l9.275,7.421v21.097h-12.033v4.011h12.033v21.097l-9.275,7.421   l2.507,3.132l6.769-5.416v3.85c0,1.108,0.897,2.006,2.006,2.006h36.1c1.108,0,2.006-0.897,2.006-2.006v-3.85l6.77,5.415   l2.506-3.132l-9.275-7.42v-21.097h12.033v-4.011h-12.033V232.896z M272.045,270.039h-32.089v-12.033h32.089V270.039z    M239.956,253.995v-12.034h32.089v12.034H239.956z M272.045,225.917v12.034h-32.089v-12.034H272.045z M239.956,286.084V274.05   h32.089v12.034H239.956z"/>
	<path fill="#FFFFFF" d="M243.966,229.928h4.011v4.011h-4.011V229.928z"/>
	<path fill="#FFFFFF" d="M251.989,229.928h16.044v4.011h-16.044V229.928z"/>
	<path fill="#FFFFFF" d="M243.966,245.972h4.011v4.011h-4.011V245.972z"/>
	<path fill="#FFFFFF" d="M251.989,245.972h16.044v4.011h-16.044V245.972z"/>
	<path fill="#FFFFFF" d="M243.966,262.017h4.011v4.012h-4.011V262.017z"/>
	<path fill="#FFFFFF" d="M251.989,262.017h16.044v4.012h-16.044V262.017z"/>
	<path fill="#FFFFFF" d="M243.966,278.062h4.011v4.011h-4.011V278.062z"/>
	<path fill="#FFFFFF" d="M251.989,278.062h16.044v4.011h-16.044V278.062z"/>
	<path fill="#FFFFFF" d="M300.122,213.883c2.215-0.002,4.009-1.797,4.012-4.011v-10.028c-0.003-2.214-1.797-4.009-4.012-4.011   h-16.044c-2.214,0.002-4.009,1.797-4.011,4.011v10.028c0.002,2.214,1.797,4.009,4.011,4.011h6.017v4.012h-4.011v4.011h12.033   v-4.011h-4.011v-4.012H300.122z M284.078,199.844h16.044l0.004,10.028h-16.048V199.844z"/>
	<path fill="#FFFFFF" d="M213.883,217.895v4.011h12.034v-4.011h-4.011v-4.012h6.017c2.215-0.002,4.009-1.797,4.011-4.011v-10.028   c-0.002-2.214-1.796-4.009-4.011-4.011h-16.044c-2.214,0.002-4.009,1.797-4.011,4.011v10.028c0.002,2.214,1.797,4.009,4.011,4.011   h6.017v4.012H213.883z M211.877,199.844h16.044l0.003,10.028h-16.048V199.844z"/>
	<path fill="#FFFFFF" d="M199.844,262.017h6.017v4.012h-4.011v4.011h12.033v-4.011h-4.011v-4.012h6.017   c2.214-0.003,4.009-1.797,4.011-4.011v-10.028c-0.002-2.214-1.797-4.009-4.011-4.011h-16.044c-2.214,0.002-4.009,1.797-4.011,4.011   v10.028C195.835,260.22,197.63,262.014,199.844,262.017z M199.844,247.978h16.044l0.003,10.028h-16.047V247.978z"/>
	<path fill="#FFFFFF" d="M312.156,245.972h-16.045c-2.215,0.002-4.01,1.797-4.012,4.011v10.027c0.002,2.215,1.797,4.01,4.012,4.012   h6.017v4.011h-4.011v4.012h12.033v-4.012h-4.012v-4.011h6.018c2.214-0.002,4.009-1.797,4.011-4.012v-10.027   C316.165,247.769,314.37,245.975,312.156,245.972z M296.111,260.011v-10.027h16.045l0.002,10.027H296.111z"/>
	<path fill="#FFFFFF" d="M300.122,308.146c2.215-0.004,4.009-1.797,4.012-4.012v-10.027c-0.003-2.216-1.797-4.01-4.012-4.012   h-16.044c-2.214,0.002-4.009,1.796-4.011,4.012v10.027c0.002,2.215,1.797,4.008,4.011,4.012h6.017v4.011h-4.011v4.011h12.033   v-4.011h-4.011v-4.011H300.122z M284.078,294.106h16.044l0.004,10.027h-16.048V294.106z"/>
	<path fill="#FFFFFF" d="M227.922,308.146c2.215-0.004,4.009-1.797,4.011-4.012v-10.027c-0.002-2.216-1.796-4.01-4.011-4.012   h-16.044c-2.214,0.002-4.009,1.796-4.011,4.012v10.027c0.002,2.215,1.797,4.008,4.011,4.012h6.017v4.011h-4.012v4.011h12.034   v-4.011h-4.011v-4.011H227.922z M211.877,294.106h16.044l0.003,10.027h-16.048V294.106z"/>
</g>
</svg>