<svg xmlns="http://www.w3.org/2000/svg" width="142" height="142" viewBox="0 0 142 142">
    <g fill="none" fill-rule="nonzero">
        <path d="M-1 0h142v142H-1z"/>
        <path fill="#EE3B68" d="M34 75v16h10V75H34zm0-4h10a4 4 0 0 1 4 4v16a4 4 0 0 1-4 4H34a4 4 0 0 1-4-4V75a4 4 0 0 1 4-4z"/>
        <path fill="#EE3B68" d="M44 71V52H27.5a9.5 9.5 0 0 0 0 19H44zM27.5 48H48v27H27.5C20.044 75 14 68.956 14 61.5S20.044 48 27.5 48z"/>
        <path fill="#EE3B68" d="M48 51.23v20.541l53 20.299V30.932L48 51.23zm-1.43-3.735l53-20.299a4 4 0 0 1 5.43 3.736V92.07a4 4 0 0 1-5.43 3.735l-53-20.298A4 4 0 0 1 44 71.77v-20.54a4 4 0 0 1 2.57-3.736zM127.039 80.291a2 2 0 0 1-2.078 3.418l-9.768-5.939a2 2 0 0 1 2.078-3.418l9.768 5.939zM116 64a2 2 0 0 1 0-4h18a2 2 0 0 1 0 4h-18zm1.163-14.425a2 2 0 0 1-2.205-3.338l8.94-5.906a2 2 0 0 1 2.204 3.338l-8.94 5.906z"/>
    </g>
</svg>
