<svg xmlns="http://www.w3.org/2000/svg" width="146" height="30" viewBox="0 0 146 30">
    <g fill="none" fill-rule="evenodd">
        <path fill="#EE3B68" d="M17.5 16.221c.186.188.517.492.57.75a.524.524 0 0 1-.12.459.562.562 0 0 1-.443.202l-3.221-.002c-.26 0-.503.03-.752-.065a1.018 1.018 0 0 1-.438-.335c-.218-.163-.4-.37-.594-.558L9.48 13.75c-.298-.289-.655-.496-.657-.963 0-.203.103-.377.285-.48.344-.193.689-.433 1.018-.65.237-.157.474-.313.715-.464.177-.11.385-.242.58-.32a.573.573 0 0 1 .463.009l.757.649 4.86 4.691z"/>
        <path fill="#22427D" d="M105.312 19.126v-.44h-2.292c-.401 0-1.236.026-1.508.39-.104.14-.129.33-.129.5 0 .822.824 1.044 1.502 1.044.858 0 2.054-.335 2.369-1.245.028-.08.048-.164.058-.249zm.019 3.444c-.842.553-1.878.758-2.907.758-1.384 0-2.754-.513-3.523-1.722a3.577 3.577 0 0 1-.545-1.933c0-.112.005-.224.014-.334l1.418-2.464c.832-.561 1.898-.761 2.905-.761h2.613c-.078-1.077-.914-1.414-1.96-1.414-.996 0-1.935.404-2.748.958a.478.478 0 0 1-.148.068l2.132-3.703c.382-.047.79-.07 1.244-.07 1.403 0 2.87.37 3.786 1.513.588.733.824 1.637.826 2.566l.02 6.72a.462.462 0 0 1-.14.34.46.46 0 0 1-.337.14h-2.173a.478.478 0 0 1-.477-.478v-.184zM111.458 7.755c1.058 0 1.84.76 1.84 1.826 0 1.055-.791 1.826-1.84 1.826-1.031 0-1.82-.792-1.82-1.826 0-1.044.78-1.826 1.82-1.826M.574.03h2.75c.315 0 .573.292.573.65v10.54c0 .357-.258.648-.574.648H.573c-.315 0-.573-.291-.573-.648V.68C0 .321.258.03.574.03M12.957.309a.56.56 0 0 1 .492-.278l3.83.007a.56.56 0 0 1 .5.298.563.563 0 0 1-.017.585c-.06.095-.102.15-.177.234-.048.054-.099.1-.15.15-1.955 1.932-3.857 3.917-5.822 5.837-.338.33-.673.665-1.004 1.003l-.615.631.42.437a.577.577 0 0 1-.008.808 1.25 1.25 0 0 1-.153.131l-.014.01-2.161 1.49a.56.56 0 0 1-.587.037c-.164-.084-.424-.349-.56-.479a71.798 71.798 0 0 1-1.593-1.569c-.146-.147-.334-.325-.46-.488a.565.565 0 0 1-.057-.615c.087-.168.309-.39.441-.528.223-.234.451-.463.68-.69.337-.338.68-.67 1.018-1.006.679-.67 1.35-1.35 2.025-2.024l3.067-3.064c.167-.166.34-.327.507-.493.112-.11.312-.297.398-.424M120.98 19.126v-.44h-2.293c-.4 0-1.235.026-1.507.39-.104.14-.129.33-.129.5 0 .822.824 1.044 1.502 1.044.858 0 2.054-.335 2.369-1.245.028-.08.047-.164.058-.249zm.019 3.444c-.842.553-1.878.758-2.907.758-1.384 0-2.754-.513-3.523-1.722a3.574 3.574 0 0 1-.545-1.933c0-.669.16-1.317.526-1.881.826-1.273 2.379-1.678 3.81-1.678h2.614c-.079-1.077-.914-1.414-1.96-1.414-.996 0-1.936.404-2.748.958a.46.46 0 0 1-.372.07.459.459 0 0 1-.306-.224l-.903-1.54a.48.48 0 0 1 .167-.653c1.608-.958 2.73-1.357 4.642-1.357 1.403 0 2.87.37 3.786 1.512.587.733.823 1.637.826 2.566l.02 6.72a.462.462 0 0 1-.14.34.46.46 0 0 1-.337.14h-2.174a.478.478 0 0 1-.476-.478v-.184zM72.509 17.15a.563.563 0 0 1-.528.35h-2.845a.558.558 0 0 1-.48-.262.562.562 0 0 1-.045-.546L75.757.46a.563.563 0 0 1 .525-.343h2.799c.233 0 .432.13.525.345l3.785 8.683-3.587 1.138c-.734-1.728-1.468-3.458-2.204-5.196-1.701 4.019-3.391 8.043-5.091 12.063"/>
        <path fill="#22427D" d="M83.69 9.83l2.993 6.864a.563.563 0 0 1-.046.546.559.559 0 0 1-.48.26h-2.914a.564.564 0 0 1-.528-.35c-.874-2.066-1.746-4.123-2.62-6.18l3.595-1.14zM143.804 15.496c-.755-.467-1.8-.834-2.689-.834-.263 0-.763.037-.943.269a.436.436 0 0 0-.078.274c0 .058.01.111.036.163.125.25.626.438.87.525.598.212 1.217.362 1.816.58 1.579.572 2.7 1.49 2.694 3.317-.008 2.472-2.206 3.519-4.395 3.519-1.539 0-3.275-.501-4.43-1.549a.473.473 0 0 1-.106-.568l.788-1.579a.463.463 0 0 1 .336-.255c.15-.03.293.01.407.112.773.691 2.072 1.15 3.101 1.15.405 0 1.195-.06 1.195-.62 0-1.451-5.371-.653-5.358-4.624.008-2.413 2.092-3.442 4.24-3.442 1.3 0 2.784.372 3.848 1.128.193.137.256.39.152.602l-.807 1.637a.462.462 0 0 1-.295.247.46.46 0 0 1-.382-.052M128.736 17.328v5.426a.478.478 0 0 1-.477.478h-2.208a.478.478 0 0 1-.477-.478V12.51c0-.264.214-.478.477-.478h2.208c.263 0 .477.214.477.478v.55c.86-.782 2.006-1.105 3.288-1.105 2.693 0 4.279 1.766 4.279 4.426v6.374a.478.478 0 0 1-.476.478h-2.21a.478.478 0 0 1-.476-.478v-5.758c0-1.27-.702-2.014-1.979-2.007-1.415.009-2.286.973-2.426 2.339M113.03 23.043c0 1.14-.346 2.238-1.191 3.03-.7.657-1.637.991-2.59.991a4.093 4.093 0 0 1-2.415-.787.474.474 0 0 1-.155-.571l.73-1.714a.46.46 0 0 1 .31-.272.46.46 0 0 1 .405.07c.286.205.674.374 1.03.374.563 0 .733-.384.733-.91V12.51c0-.264.214-.478.476-.478h2.19c.262 0 .476.214.476.478v10.534zM90.95 13.868h4.07L92.93 17.5h-5.283a.576.576 0 0 1-.573-.575V.69c0-.316.257-.575.573-.575h2.73c.315 0 .573.259.573.575v13.177zM67.211 5.149c-1.258-.764-2.952-1.424-4.444-1.424-.708 0-2.063.148-2.063 1.117 0 .216.044.417.153.603.29.49 1.004.803 1.512.996.876.333 1.801.564 2.692.866 2.482.842 4.37 2.124 4.362 5.027-.002.91-.23 1.784-.713 2.557-1.25 2-3.74 2.702-5.966 2.702-2.546 0-5.124-1-7.002-2.726a.57.57 0 0 1-.126-.681l1.18-2.366a.558.558 0 0 1 .409-.308.556.556 0 0 1 .492.142c1.33 1.222 3.255 2.214 5.093 2.214.905 0 2.456-.19 2.456-1.396 0-.23-.047-.444-.167-.64-.295-.485-.994-.788-1.502-.977-.86-.32-1.771-.54-2.648-.822-1.15-.37-2.345-.86-3.207-1.74-.862-.88-1.218-1.975-1.218-3.195 0-.881.215-1.728.678-2.48C58.39.663 60.812 0 62.975 0c2.063 0 4.258.621 5.983 1.765.24.159.325.465.202.725l-1.133 2.412a.556.556 0 0 1-.353.306.553.553 0 0 1-.463-.059M45.5 10.179L50.302.436c.1-.2.291-.32.515-.32h3.218c.316 0 .574.259.574.575v16.234a.576.576 0 0 1-.574.575h-2.524a.576.576 0 0 1-.574-.574l-.019-9.662-4.023 8.221a.562.562 0 0 1-.515.322H44.6a.563.563 0 0 1-.516-.322l-4.018-8.211v9.65a.575.575 0 0 1-.574.576h-2.567a.575.575 0 0 1-.573-.575V.69c0-.316.257-.575.573-.575h3.238c.223 0 .414.12.514.32l4.823 9.743zM22.897 10.2c0 2.38 1.395 3.807 3.774 3.807 2.388 0 3.705-1.438 3.705-3.808V.691c0-.316.258-.575.573-.575h2.73c.315 0 .573.259.573.575V10.2c0 4.66-3.018 7.417-7.604 7.417-4.583 0-7.627-2.753-7.627-7.417V.691c0-.316.257-.575.573-.575h2.73c.315 0 .573.259.573.575V10.2zM105.675.458l.282.163c.476.276.642.893.366 1.369L90.66 28.956a1.002 1.002 0 0 1-1.365.367l-.282-.163a1.005 1.005 0 0 1-.366-1.37L104.31.826a1.002 1.002 0 0 1 1.365-.367"/>
    </g>
</svg>
