<?xml version="1.0" encoding="UTF-8"?>
<!-- Generator: Adobe Illustrator 16.0.0, SVG Export Plug-In . SVG Version: 6.00 Build 0)  -->
<!DOCTYPE svg PUBLIC "-//W3C//DTD SVG 1.1//EN" "http://www.w3.org/Graphics/SVG/1.1/DTD/svg11.dtd">
<svg version="1.1" id="Capa_1" xmlns="http://www.w3.org/2000/svg" xmlns:xlink="http://www.w3.org/1999/xlink" x="0px" y="0px" width="142px" height="142px" viewBox="229 129 142 142" enable-background="new 229 129 142 142" xml:space="preserve">
<g>
	<g>
		<path fill="#FFFFFF" d="M361.785,156.762c-0.454-0.395-1.058-0.574-1.654-0.492l-9.187,1.271c-33.804,4.66-68.085,4.66-101.888,0    l-9.188-1.271c-1.14-0.157-2.191,0.639-2.349,1.778c-0.013,0.094-0.02,0.189-0.02,0.284v66.667    c0.001,1.15,0.934,2.083,2.084,2.082c0.095,0,0.19-0.006,0.284-0.02l9.19-1.271c13.437-1.851,26.966-2.959,40.525-3.318v17.11H275    v4.166h50v-4.166h-14.583v-17.11c13.56,0.36,27.089,1.468,40.526,3.318l9.188,1.271c0.095,0.015,0.19,0.021,0.286,0.021    c1.15,0,2.083-0.934,2.083-2.084v-66.667C362.5,157.73,362.239,157.158,361.785,156.762z M306.25,239.583h-12.5v-17.211    c0.548,0,1.098,0,1.646-0.019c3.066-0.037,6.141-0.037,9.208,0c0.55,0,1.098,0.01,1.646,0.019V239.583z M358.333,222.609    l-6.816-0.943c-13.628-1.876-27.349-2.999-41.1-3.362v-0.029l-2.038-0.046c-2.781-0.061-5.579-0.092-8.379-0.092    s-5.6,0.031-8.379,0.092l-2.037,0.046v0.029c-13.751,0.363-27.471,1.485-41.098,3.362l-6.819,0.943v-61.887l6.819,0.946    c34.181,4.715,68.848,4.715,103.029,0l6.818-0.946V222.609z"/>
	</g>
</g>
</svg>