<?xml version="1.0" encoding="utf-8"?>
<!-- Generator: Adobe Illustrator 16.0.0, SVG Export Plug-In . SVG Version: 6.00 Build 0)  -->
<!DOCTYPE svg PUBLIC "-//W3C//DTD SVG 1.1//EN" "http://www.w3.org/Graphics/SVG/1.1/DTD/svg11.dtd">
<svg version="1.1" id="Layer_5" xmlns="http://www.w3.org/2000/svg" xmlns:xlink="http://www.w3.org/1999/xlink" x="0px" y="0px"
	 width="142px" height="142px" viewBox="185 185 142 142" enable-background="new 185 185 142 142" xml:space="preserve">
<g>
	<path fill="#EE3B68" d="M262.193,288.517h-12.387c-1.708,0-3.097,1.389-3.097,3.097v3.097c0,1.708,1.389,3.097,3.097,3.097h12.387
		c1.708,0,3.097-1.389,3.097-3.097v-3.097C265.29,289.905,263.901,288.517,262.193,288.517z M249.807,294.71v-3.097h12.387
		l0.002,3.097H249.807z"/>
	<path fill="#EE3B68" d="M248.258,214.193h3.097v3.097h-3.097V214.193z"/>
	<path fill="#EE3B68" d="M254.452,214.193h9.291v3.097h-9.291V214.193z"/>
	<path fill="#EE3B68" d="M299.354,231.226h-9.29v-15.483c0-4.269-3.473-7.742-7.742-7.742h-52.645c-4.269,0-7.742,3.473-7.742,7.742
		v24.133l-3.738,3.738h-5.553c-2.561,0-4.645,2.084-4.645,4.645v12.388c0,2.561,2.084,4.645,4.645,4.645h9.291v30.968
		c0,4.27,3.473,7.742,7.742,7.742h52.645c4.27,0,7.742-3.473,7.742-7.742v-39.616l3.738-3.738h5.552
		c2.562,0,4.646-2.084,4.646-4.646v-12.387C304,233.31,301.916,231.226,299.354,231.226z M229.677,211.097h52.645
		c2.562,0,4.646,2.084,4.646,4.646v15.483h-3.097v-7.742c0-1.708-1.389-3.097-3.097-3.097h-49.549c-1.708,0-3.097,1.389-3.097,3.097
		v14.271c-0.54-0.209-1.123-0.336-1.735-0.336c-0.471,0-0.923,0.088-1.361,0.217v-21.894
		C225.032,213.181,227.116,211.097,229.677,211.097z M279.226,252.903h1.549v1.361v28.058h-3.097v-8.388
		c0-4.226-2.473-8.013-6.193-9.782v-22.088c0-8.538-6.946-15.484-15.484-15.484c-8.538,0-15.484,6.946-15.484,15.484v22.088
		c-3.721,1.771-6.193,5.557-6.193,9.782v8.388h-3.097V265.29h1.549c2.561,0,4.645-2.084,4.645-4.645v-12.388
		c0-2.561-2.084-4.645-4.645-4.645h-1.549v-1.361v-18.768h49.549v7.742h-1.549c-2.561,0-4.645,2.084-4.645,4.646v12.387
		C274.581,250.819,276.665,252.903,279.226,252.903z M260.281,269.936h-8.563l-1.674-5.357l0.985-0.268
		c1.796-0.491,3.103-2.01,3.366-3.813c0.522,0.091,1.056,0.148,1.604,0.148c0.548,0,1.082-0.058,1.604-0.148
		c0.263,1.804,1.569,3.322,3.366,3.813l0.984,0.268L260.281,269.936z M246.709,251.355c-1.708,0-3.097-1.389-3.097-3.097
		c0-1.708,1.389-3.097,3.097-3.097V251.355z M246.709,254.452h0.542c0.744,2.092,2.209,3.837,4.104,4.936v0.439
		c0,0.697-0.469,1.312-1.141,1.495l-6.601,1.801v-9.532C244.528,254.123,245.576,254.452,246.709,254.452z M256,257.549
		c-3.416,0-6.193-2.778-6.193-6.194v-6.325c1.768-0.304,3.398-1.127,4.713-2.394c2.112,1.638,4.693,2.525,7.409,2.525h0.265v6.194
		C262.193,254.771,259.416,257.549,256,257.549L256,257.549z M261.786,261.323c-0.672-0.185-1.141-0.797-1.141-1.494v-0.439
		c1.894-1.1,3.359-2.846,4.103-4.937h0.542c1.134,0,2.182-0.328,3.097-0.861v9.531L261.786,261.323z M265.29,245.161
		c1.708,0,3.097,1.389,3.097,3.097c0,1.708-1.389,3.097-3.097,3.097V245.161z M268.387,242.925
		c-0.915-0.533-1.963-0.861-3.097-0.861h-1.548h-1.813c-2.411,0-4.678-0.938-6.382-2.643l-1.095-1.095l-2.002,2.002
		c-1.12,1.12-2.609,1.736-4.192,1.736h-1.548c-1.133,0-2.182,0.328-3.097,0.861v-0.861c0-6.83,5.557-12.387,12.387-12.387
		s12.387,5.557,12.387,12.387V242.925z M243.125,266.466l3.932-1.071l5.289,16.928h-14.926v-8.388
		C237.419,270.453,239.765,267.383,243.125,266.466L243.125,266.466z M255.59,282.322l-2.903-9.29h6.627l-2.903,9.29H255.59z
		 M264.945,265.395l3.932,1.071c3.357,0.917,5.704,3.987,5.704,7.469v8.388h-14.927L264.945,265.395z M211.097,260.646v-12.388
		c0-0.854,0.695-1.548,1.548-1.548h6.834l5.686-5.686c0.328-0.328,0.763-0.508,1.228-0.508c0.957,0,1.735,0.779,1.735,1.736v2.909
		v1.548h4.646c0.853,0,1.548,0.694,1.548,1.548v12.388c0,0.854-0.695,1.548-1.548,1.548h-20.129
		C211.792,262.193,211.097,261.5,211.097,260.646z M282.322,300.903h-52.645c-2.561,0-4.645-2.084-4.645-4.646V265.29h3.097v17.032
		c0,1.708,1.389,3.097,3.097,3.097h49.549c1.708,0,3.097-1.389,3.097-3.097v-23.562c0.54,0.209,1.122,0.336,1.735,0.336
		c0.471,0,0.923-0.088,1.361-0.217v37.378C286.968,298.819,284.884,300.903,282.322,300.903z M300.903,248.258
		c0,0.855-0.695,1.549-1.549,1.549h-6.834l-5.687,5.686c-0.328,0.328-0.763,0.508-1.228,0.508c-0.956,0-1.735-0.779-1.735-1.736
		v-2.909v-1.548h-4.646c-0.853,0-1.548-0.694-1.548-1.549v-12.387c0-0.855,0.695-1.548,1.548-1.548h20.129
		c0.854,0,1.549,0.693,1.549,1.548V248.258z"/>
	<path fill="#EE3B68" d="M280.774,237.419h17.032v3.097h-17.032V237.419z"/>
	<path fill="#EE3B68" d="M294.71,243.613h3.097v3.097h-3.097V243.613z"/>
	<path fill="#EE3B68" d="M280.774,243.613h10.839v3.097h-10.839V243.613z"/>
	<path fill="#EE3B68" d="M214.193,256h10.839v3.097h-10.839V256z"/>
	<path fill="#EE3B68" d="M228.129,256h3.097v3.097h-3.097V256z"/>
	<path fill="#EE3B68" d="M214.193,249.807h17.032v3.097h-17.032V249.807z"/>
</g>
</svg>
