<?xml version="1.0" encoding="UTF-8"?>
<!-- Generator: Adobe Illustrator 16.0.0, SVG Export Plug-In . SVG Version: 6.00 Build 0)  -->
<!DOCTYPE svg PUBLIC "-//W3C//DTD SVG 1.1//EN" "http://www.w3.org/Graphics/SVG/1.1/DTD/svg11.dtd">
<svg version="1.1" id="Capa_1" xmlns="http://www.w3.org/2000/svg" xmlns:xlink="http://www.w3.org/1999/xlink" x="0px" y="0px" width="142px" height="142px" viewBox="235 222.749 142 142" enable-background="new 235 222.749 142 142" xml:space="preserve">
<g>
	<g>
		<g>
			<path fill="#FFFFFF" d="M358.833,240.97H253.167c-1.186,0-2.147,0.962-2.147,2.147v22.09c0,1.188,0.962,2.148,2.147,2.148     h105.666c1.186,0,2.147-0.96,2.147-2.148v-22.09C360.98,241.932,360.019,240.97,358.833,240.97z M356.686,263.061H255.314     v-17.796h101.371V263.061z"/>
		</g>
	</g>
	<g>
		<g>
			<path fill="#FFFFFF" d="M351.834,258.183l-1.754-1.754c0.479-0.947,0.733-1.999,0.733-3.09c0-1.833-0.715-3.556-2.011-4.852     c-2.676-2.676-7.027-2.676-9.703,0c-1.296,1.296-2.009,3.019-2.009,4.852s0.713,3.556,2.009,4.852s3.021,2.009,4.852,2.009     c1.092,0,2.145-0.255,3.091-0.734l1.754,1.754c0.42,0.419,0.969,0.629,1.518,0.629c0.551,0,1.101-0.21,1.521-0.629     C352.672,260.381,352.672,259.021,351.834,258.183z M345.767,255.152c-0.485,0.485-1.129,0.752-1.815,0.752     c-0.685,0-1.329-0.267-1.813-0.752s-0.752-1.129-0.752-1.813c0-0.686,0.268-1.331,0.752-1.815c0.5-0.5,1.157-0.75,1.813-0.75     c0.658,0,1.314,0.25,1.815,0.75c0.484,0.484,0.752,1.129,0.752,1.815C346.519,254.023,346.251,254.667,345.767,255.152z"/>
		</g>
	</g>
	<g>
		<g>
			<path fill="#FFFFFF" d="M327.979,257.632c-0.028-0.139-0.068-0.274-0.122-0.403s-0.121-0.255-0.198-0.372     c-0.078-0.116-0.167-0.227-0.266-0.327c-0.099-0.098-0.209-0.188-0.327-0.265c-0.116-0.078-0.24-0.145-0.371-0.199     c-0.13-0.053-0.264-0.094-0.401-0.122c-0.277-0.055-0.563-0.055-0.84,0c-0.139,0.028-0.272,0.069-0.402,0.122     c-0.128,0.054-0.254,0.121-0.368,0.199c-0.119,0.078-0.229,0.167-0.33,0.265c-0.099,0.1-0.187,0.21-0.266,0.327     c-0.077,0.117-0.145,0.243-0.198,0.372c-0.054,0.13-0.094,0.264-0.122,0.403s-0.04,0.279-0.04,0.42     c0,0.139,0.012,0.279,0.04,0.419c0.028,0.137,0.068,0.273,0.122,0.401s0.121,0.253,0.198,0.372     c0.079,0.116,0.167,0.228,0.266,0.327c0.102,0.098,0.211,0.189,0.33,0.265c0.114,0.078,0.24,0.145,0.368,0.199     c0.131,0.054,0.267,0.094,0.402,0.122c0.139,0.028,0.28,0.04,0.421,0.04c0.139,0,0.28-0.013,0.419-0.04     c0.138-0.028,0.273-0.068,0.401-0.122s0.255-0.121,0.371-0.199c0.118-0.076,0.229-0.167,0.327-0.265     c0.399-0.401,0.629-0.953,0.629-1.519C328.022,257.911,328.008,257.771,327.979,257.632z"/>
		</g>
	</g>
	<g>
		<g>
			<path fill="#FFFFFF" d="M317.731,255.904h-44.635c-1.187,0-2.148,0.962-2.148,2.147s0.961,2.148,2.148,2.148h44.635     c1.186,0,2.147-0.962,2.147-2.148S318.917,255.904,317.731,255.904z"/>
		</g>
	</g>
	<g>
		<g>
			<path fill="#FFFFFF" d="M318.633,270.417H253.42c-1.186,0-2.147,0.962-2.147,2.147v42.353c0,1.186,0.962,2.147,2.147,2.147     h65.212c1.187,0,2.147-0.962,2.147-2.147v-42.353C320.78,271.379,319.818,270.417,318.633,270.417z M277.179,312.77h-18.23     l12.278-14.215l8.891,10.296L277.179,312.77z M282.548,312.77l4.005-5.339h10.414c1.186,0,2.147-0.963,2.147-2.148     s-0.961-2.147-2.147-2.147h-7.193l1.507-2.009h13.485l8.733,11.644H282.548z M294.503,296.831l3.521-4.695l3.521,4.695H294.503z      M316.484,309.59l-16.743-22.323c-0.405-0.542-1.042-0.859-1.718-0.859c-0.676,0-1.313,0.317-1.718,0.859l-13.55,18.066     l-9.904-11.469c-0.408-0.472-1.001-0.743-1.625-0.743c-0.625,0-1.218,0.271-1.626,0.743l-14.033,16.248v-35.4h60.916V309.59     L316.484,309.59z"/>
		</g>
	</g>
	<g>
		<g>
			<path fill="#FFFFFF" d="M280.582,277.179c-4.187,0-7.593,3.406-7.593,7.593s3.406,7.591,7.593,7.591s7.592-3.405,7.592-7.591     S284.769,277.179,280.582,277.179z M280.582,288.07c-1.819,0-3.297-1.48-3.297-3.298s1.479-3.297,3.297-3.297     c1.818,0,3.297,1.479,3.297,3.297S282.4,288.07,280.582,288.07z"/>
		</g>
	</g>
	<g>
		<g>
			<path fill="#FFFFFF" d="M358.833,270.417h-33.007c-1.188,0-2.148,0.962-2.148,2.147v42.353c0,1.186,0.962,2.147,2.148,2.147     h33.007c1.186,0,2.147-0.962,2.147-2.147v-42.353C360.98,271.379,360.019,270.417,358.833,270.417z M356.686,312.77h-28.712     v-38.057h28.712V312.77z"/>
		</g>
	</g>
	<g>
		<g>
			<path fill="#FFFFFF" d="M351.685,278.25h-18.712c-1.186,0-2.147,0.962-2.147,2.147c0,1.186,0.962,2.148,2.147,2.148h18.712     c1.188,0,2.147-0.962,2.147-2.148C353.832,279.212,352.872,278.25,351.685,278.25z"/>
		</g>
	</g>
	<g>
		<g>
			<path fill="#FFFFFF" d="M351.685,286.869h-18.712c-1.186,0-2.147,0.962-2.147,2.147s0.962,2.148,2.147,2.148h18.712     c1.188,0,2.147-0.962,2.147-2.148S352.872,286.869,351.685,286.869z"/>
		</g>
	</g>
	<g>
		<g>
			<path fill="#FFFFFF" d="M351.685,295.489h-18.712c-1.186,0-2.147,0.963-2.147,2.148s0.962,2.147,2.147,2.147h18.712     c1.188,0,2.147-0.962,2.147-2.147S352.872,295.489,351.685,295.489z"/>
		</g>
	</g>
	<g>
		<g>
			<path fill="#FFFFFF" d="M335.08,305.836c-0.028-0.138-0.07-0.272-0.124-0.401c-0.054-0.13-0.119-0.254-0.196-0.371     c-0.079-0.117-0.169-0.229-0.269-0.327c-0.498-0.498-1.239-0.728-1.938-0.586c-0.138,0.028-0.272,0.068-0.401,0.122     c-0.128,0.054-0.253,0.121-0.371,0.199c-0.116,0.075-0.229,0.166-0.327,0.265c-0.098,0.099-0.189,0.21-0.267,0.327     c-0.076,0.117-0.144,0.242-0.197,0.371s-0.094,0.264-0.122,0.401c-0.028,0.14-0.043,0.28-0.043,0.419     c0,0.142,0.015,0.281,0.043,0.42c0.027,0.139,0.068,0.273,0.122,0.402s0.121,0.254,0.197,0.372     c0.077,0.115,0.169,0.228,0.267,0.325c0.099,0.1,0.211,0.189,0.327,0.268c0.118,0.077,0.243,0.143,0.371,0.196     c0.129,0.056,0.264,0.096,0.401,0.124c0.141,0.027,0.279,0.041,0.421,0.041c0.564,0,1.117-0.229,1.517-0.629     c0.099-0.098,0.189-0.21,0.269-0.326c0.077-0.118,0.143-0.242,0.196-0.371s0.096-0.265,0.124-0.402     c0.027-0.139,0.04-0.278,0.04-0.42C335.12,306.116,335.107,305.976,335.08,305.836z"/>
		</g>
	</g>
	<g>
		<g>
			<path fill="#FFFFFF" d="M351.685,304.108h-10.57c-1.186,0-2.146,0.963-2.146,2.148s0.96,2.146,2.146,2.146h10.57     c1.188,0,2.147-0.961,2.147-2.146S352.872,304.108,351.685,304.108z"/>
		</g>
	</g>
	<g>
		<g>
			<path fill="#FFFFFF" d="M286.429,320.112H253.42c-1.186,0-2.147,0.962-2.147,2.147v22.121c0,1.186,0.962,2.147,2.147,2.147     h33.008c1.186,0,2.147-0.962,2.147-2.147V322.26C288.576,321.074,287.614,320.112,286.429,320.112z M284.281,342.233h-28.712     v-17.826h28.712V342.233L284.281,342.233z"/>
		</g>
	</g>
	<g>
		<g>
			<path fill="#FFFFFF" d="M358.833,320.112h-64.919c-1.186,0-2.147,0.962-2.147,2.147v22.121c0,1.186,0.962,2.147,2.147,2.147     h64.919c1.186,0,2.147-0.962,2.147-2.147V322.26C360.98,321.074,360.019,320.112,358.833,320.112z M356.686,342.233h-60.624     v-17.826h60.624V342.233L356.686,342.233z"/>
		</g>
	</g>
	<g>
		<g>
			<path fill="#FFFFFF" d="M305.846,332.901c-0.028-0.138-0.069-0.273-0.123-0.401c-0.054-0.132-0.12-0.255-0.197-0.372     c-0.078-0.117-0.168-0.228-0.267-0.326c-0.099-0.099-0.208-0.189-0.326-0.266c-0.116-0.077-0.241-0.145-0.371-0.198     c-0.129-0.054-0.265-0.097-0.402-0.124c-0.277-0.054-0.563-0.054-0.84,0c-0.136,0.027-0.271,0.07-0.402,0.124     c-0.128,0.054-0.253,0.121-0.369,0.198c-0.119,0.078-0.228,0.167-0.327,0.266c-0.099,0.099-0.188,0.209-0.269,0.326     c-0.077,0.117-0.144,0.24-0.198,0.372c-0.054,0.128-0.095,0.264-0.122,0.401c-0.027,0.137-0.041,0.278-0.041,0.419     c0,0.139,0.014,0.281,0.041,0.419c0.027,0.137,0.068,0.272,0.122,0.402s0.12,0.254,0.198,0.37c0.08,0.118,0.17,0.229,0.269,0.327     c0.4,0.399,0.954,0.629,1.518,0.629c0.141,0,0.282-0.014,0.419-0.04c0.137-0.028,0.273-0.072,0.402-0.126     c0.13-0.053,0.255-0.117,0.371-0.196c0.118-0.078,0.228-0.169,0.326-0.267c0.099-0.099,0.189-0.209,0.267-0.327     c0.077-0.115,0.143-0.24,0.197-0.368c0.054-0.132,0.095-0.268,0.123-0.404c0.027-0.139,0.042-0.28,0.042-0.419     C305.888,333.18,305.873,333.038,305.846,332.901z"/>
		</g>
	</g>
	<g>
		<g>
			<path fill="#FFFFFF" d="M347.948,331.173h-36.066c-1.187,0-2.147,0.962-2.147,2.147s0.962,2.147,2.147,2.147h36.066     c1.186,0,2.147-0.962,2.147-2.147S349.134,331.173,347.948,331.173z"/>
		</g>
	</g>
</g>
</svg>