<?xml version="1.0" encoding="utf-8"?>
<!-- Generator: Adobe Illustrator 16.0.0, SVG Export Plug-In . SVG Version: 6.00 Build 0)  -->
<!DOCTYPE svg PUBLIC "-//W3C//DTD SVG 1.1//EN" "http://www.w3.org/Graphics/SVG/1.1/DTD/svg11.dtd">
<svg version="1.1" id="Capa_1" xmlns="http://www.w3.org/2000/svg" xmlns:xlink="http://www.w3.org/1999/xlink" x="0px" y="0px"
	 width="142px" height="142px" viewBox="0 0 142 142" enable-background="new 0 0 142 142" xml:space="preserve">
<g>
	<g>
		<path fill="#22427D" d="M132.785,33.696c-0.454-0.395-1.059-0.574-1.654-0.492l-9.188,1.271c-33.803,4.66-68.084,4.66-101.887,0
			l-9.188-1.271c-1.14-0.155-2.191,0.641-2.349,1.778c-0.014,0.095-0.021,0.188-0.021,0.284v66.667
			c0.001,1.148,0.935,2.083,2.084,2.082c0.095,0,0.19-0.006,0.284-0.021l9.188-1.271c13.438-1.852,26.967-2.959,40.525-3.317v17.109
			H46v4.166h50v-4.166H81.417V99.407c13.56,0.359,27.089,1.468,40.526,3.317l9.188,1.271c0.096,0.017,0.19,0.021,0.286,0.021
			c1.149,0,2.083-0.935,2.083-2.084V35.267C133.5,34.666,133.239,34.094,132.785,33.696z M77.25,116.519h-12.5V99.308
			c0.548,0,1.098,0,1.646-0.02c3.065-0.036,6.141-0.036,9.208,0c0.551,0,1.099,0.011,1.646,0.02L77.25,116.519L77.25,116.519z
			 M129.333,99.545l-6.815-0.943c-13.629-1.876-27.35-2.999-41.101-3.362v-0.027l-2.038-0.048C76.598,95.104,73.8,95.071,71,95.071
			s-5.6,0.031-8.379,0.092l-2.037,0.048v0.027c-13.751,0.363-27.471,1.485-41.098,3.362l-6.819,0.943V37.656l6.819,0.946
			c34.181,4.715,68.848,4.715,103.03,0l6.816-0.946L129.333,99.545L129.333,99.545z"/>
	</g>
</g>
</svg>
