<?xml version="1.0" encoding="utf-8"?>
<!-- Generator: Adobe Illustrator 16.0.0, SVG Export Plug-In . SVG Version: 6.00 Build 0)  -->
<!DOCTYPE svg PUBLIC "-//W3C//DTD SVG 1.1//EN" "http://www.w3.org/Graphics/SVG/1.1/DTD/svg11.dtd">
<svg version="1.1" id="Layer_1" xmlns="http://www.w3.org/2000/svg" xmlns:xlink="http://www.w3.org/1999/xlink" x="0px" y="0px"
	 width="142px" height="142px" viewBox="0 0 142 142" enable-background="new 0 0 142 142" xml:space="preserve">
<g>
	<path fill="#22427D" d="M34,75v16h10V75H34z M34,71h10c2.209,0,4,1.791,4,4v16c0,2.209-1.791,4-4,4H34c-2.209,0-4-1.791-4-4V75
		C30,72.791,31.791,71,34,71z"/>
	<path fill="#22427D" d="M44,71V52H27.5c-5.247,0-9.5,4.253-9.5,9.5s4.253,9.5,9.5,9.5H44z M27.5,48H48v27H27.5
		C20.044,75,14,68.956,14,61.5S20.044,48,27.5,48z"/>
	<path fill="#22427D" d="M48,51.23v20.542l53,20.299V30.932L48,51.23z M46.57,47.495l53-20.299c2.063-0.79,4.375,0.242,5.164,2.306
		c0.176,0.456,0.266,0.941,0.266,1.43V92.07c0,2.209-1.791,4-4,3.998c-0.489,0-0.975-0.09-1.43-0.264l-53-20.299
		C45.021,74.914,44,73.428,44,71.77V51.23C44,49.572,45.022,48.086,46.57,47.495L46.57,47.495z M127.039,80.291
		c0.943,0.574,1.244,1.805,0.67,2.748s-1.805,1.244-2.748,0.67l0,0l-9.768-5.939c-0.944-0.572-1.244-1.804-0.67-2.748
		c0.572-0.942,1.804-1.242,2.748-0.67L127.039,80.291z M116,64c-1.104,0-2-0.896-2-2s0.896-2,2-2h18c1.104,0,2,0.896,2,2
		s-0.896,2-2,2H116z M117.163,49.575c-0.922,0.608-2.163,0.355-2.771-0.565c-0.608-0.922-0.355-2.163,0.565-2.771l8.94-5.906
		c0.923-0.606,2.162-0.349,2.77,0.575c0.604,0.919,0.352,2.154-0.566,2.763L117.163,49.575L117.163,49.575z"/>
</g>
</svg>
