<?xml version="1.0" encoding="utf-8"?>
<!-- Generator: Adobe Illustrator 16.0.0, SVG Export Plug-In . SVG Version: 6.00 Build 0)  -->
<!DOCTYPE svg PUBLIC "-//W3C//DTD SVG 1.1//EN" "http://www.w3.org/Graphics/SVG/1.1/DTD/svg11.dtd">
<svg version="1.1" id="Capa_1" xmlns="http://www.w3.org/2000/svg" xmlns:xlink="http://www.w3.org/1999/xlink" x="0px" y="0px"
	 width="142px" height="142px" viewBox="0 0 142 142" enable-background="new 0 0 142 142" xml:space="preserve">
<g>
	<g>
		<path fill="#22427D" d="M126.675,23.369H15.326c-4.315,0-7.826,3.51-7.826,7.825v75.559c0,4.313,3.51,7.826,7.826,7.826h37.66
			l-1.523,12.187H45.15c-1.026,0-1.859,0.832-1.859,1.859s0.833,1.859,1.859,1.859h51.7c1.027,0,1.859-0.832,1.859-1.859
			s-0.832-1.859-1.859-1.859h-6.312l-1.522-12.187h37.659c4.314,0,7.825-3.513,7.825-7.826V31.194
			C134.5,26.879,130.989,23.369,126.675,23.369z M55.212,126.764l1.522-12.186h6.848l0.671,2.688
			c0.775,3.102,3.55,5.268,6.746,5.268c3.197,0,5.971-2.166,6.746-5.268l0.672-2.688h6.847l1.523,12.186H55.212z M67.417,114.578
			h7.165l-0.445,1.781c-0.359,1.443-1.648,2.449-3.137,2.449s-2.775-1.006-3.137-2.449L67.417,114.578z M130.779,106.752
			L130.779,106.752c0,2.264-1.842,4.104-4.104,4.104H15.326c-2.264,0-4.105-1.842-4.105-4.104V31.194
			c0-2.265,1.842-4.105,4.105-4.105h111.349c2.263,0,4.104,1.841,4.104,4.105V106.752L130.779,106.752z"/>
	</g>
</g>
<g>
	<g>
		<path fill="#22427D" d="M112.756,31.323H17.314c-1.028,0-1.86,0.832-1.86,1.859v71.582c0,1.027,0.833,1.859,1.86,1.859h3.977
			c1.028,0,1.859-0.832,1.859-1.859s-0.832-1.861-1.859-1.861h-2.117V35.044h93.582c1.027,0,1.86-0.833,1.86-1.86
			C114.616,32.155,113.783,31.323,112.756,31.323z"/>
	</g>
</g>
<g>
	<g>
		<path fill="#22427D" d="M124.688,31.323h-3.979c-1.027,0-1.859,0.832-1.859,1.859c0,1.027,0.832,1.86,1.859,1.86h2.117V102.9
			H29.244c-1.027,0-1.86,0.834-1.86,1.861s0.833,1.859,1.86,1.859h95.441c1.026,0,1.858-0.832,1.858-1.859v-71.58
			C126.547,32.155,125.714,31.323,124.688,31.323z"/>
	</g>
</g>
<g>
	<g>
		<path fill="#22427D" d="M96.325,51.92c-0.334-0.427-0.838-0.688-1.38-0.711L51.201,49.22c-0.034-0.001-0.068-0.002-0.102-0.002
			c-0.26-0.85-0.807-1.587-1.548-2.081l-5.356-3.572c-0.854-0.568-2.01-0.339-2.58,0.518c-0.57,0.854-0.339,2.01,0.516,2.58
			l5.357,3.57c0.024,0.018,0.044,0.042,0.052,0.072l6.824,23.882c0.212,0.744,0.563,1.414,1.013,1.992l-2.497,4.992
			c-0.601,1.202-0.538,2.602,0.168,3.745c0.257,0.414,0.581,0.769,0.954,1.05c-0.488,0.854-0.77,1.84-0.77,2.893
			c0,3.22,2.619,5.838,5.837,5.838c3.219,0,5.837-2.618,5.837-5.838c0-0.746-0.144-1.461-0.398-2.115h16.96
			c-0.256,0.654-0.396,1.369-0.396,2.115c0,3.22,2.618,5.838,5.837,5.838s5.837-2.618,5.837-5.838c0-0.934-0.222-1.815-0.612-2.6
			c0.375-0.341,0.612-0.83,0.612-1.378c0-1.026-0.832-1.86-1.859-1.86H56.322c-0.026,0-0.071,0-0.109-0.061
			c-0.038-0.063-0.017-0.102-0.005-0.125l2.3-4.602c0.469,0.121,0.956,0.188,1.455,0.188c0.23,0,0.462-0.016,0.696-0.041
			L86.8,75.307c3.376-0.396,6.093-2.904,6.759-6.238l3.127-15.635C96.791,52.898,96.66,52.347,96.325,51.92z M86.907,86.74
			c1.167,0,2.116,0.949,2.116,2.115c0,1.168-0.949,2.117-2.116,2.117s-2.116-0.949-2.116-2.117
			C84.791,87.689,85.74,86.74,86.907,86.74z M59.07,86.74c1.167,0,2.115,0.949,2.115,2.115c0,1.168-0.948,2.117-2.115,2.117
			c-1.167,0-2.116-0.949-2.116-2.117C56.954,87.689,57.903,86.74,59.07,86.74z M54.508,61.147l-2.331-8.158l7.438,0.338l1.29,7.82
			H54.508L54.508,61.147z M60.223,74.684c-1.037,0.123-1.996-0.518-2.281-1.521l-2.37-8.295h5.946l1.563,9.479L60.223,74.684z
			 M71.128,73.4l-4.349,0.513l-1.491-9.044h5.84V73.4z M71.128,61.147h-6.454L63.413,53.5l7.715,0.351V61.147z M80.55,72.293
			l-5.7,0.671v-8.095h6.373L80.55,72.293z M81.559,61.147H74.85V54.02l7.324,0.333L81.559,61.147z M89.909,68.337
			c-0.351,1.749-1.774,3.063-3.546,3.271l-2.038,0.24l0.632-6.979h5.646L89.909,68.337z M91.348,61.147h-6.053l0.6-6.626
			l6.719,0.306L91.348,61.147z"/>
	</g>
</g>
</svg>
