<?xml version="1.0" encoding="utf-8"?>
<!-- Generator: Adobe Illustrator 16.0.0, SVG Export Plug-In . SVG Version: 6.00 Build 0)  -->
<!DOCTYPE svg PUBLIC "-//W3C//DTD SVG 1.1//EN" "http://www.w3.org/Graphics/SVG/1.1/DTD/svg11.dtd">
<svg version="1.1" id="Capa_1" xmlns="http://www.w3.org/2000/svg" xmlns:xlink="http://www.w3.org/1999/xlink" x="0px" y="0px"
	 width="142px" height="142px" viewBox="0 0 142 142" enable-background="new 0 0 142 142" xml:space="preserve">
<g>
	<g>
		<g>
			<path fill="#22427D" d="M123.72,20.944H18.054c-1.187,0-2.146,0.962-2.146,2.147v22.09c0,1.188,0.963,2.148,2.146,2.148H123.72
				c1.188,0,2.147-0.961,2.147-2.148v-22.09C125.867,21.906,124.906,20.944,123.72,20.944z M121.572,43.035H20.201V25.24h101.371
				V43.035L121.572,43.035z"/>
		</g>
	</g>
	<g>
		<g>
			<path fill="#22427D" d="M116.721,38.158l-1.754-1.755c0.479-0.946,0.732-1.999,0.732-3.09c0-1.833-0.715-3.556-2.012-4.852
				c-2.676-2.677-7.025-2.677-9.701,0c-1.297,1.296-2.01,3.019-2.01,4.852s0.713,3.556,2.01,4.853
				c1.295,1.296,3.021,2.009,4.852,2.009c1.092,0,2.145-0.255,3.091-0.734l1.755,1.754c0.42,0.419,0.969,0.63,1.519,0.63
				c0.551,0,1.101-0.211,1.521-0.63C117.559,40.355,117.559,38.996,116.721,38.158z M110.654,35.126
				c-0.485,0.484-1.131,0.752-1.815,0.752s-1.329-0.268-1.813-0.752c-0.482-0.485-0.752-1.129-0.752-1.813
				c0-0.687,0.27-1.331,0.752-1.815c0.5-0.5,1.158-0.75,1.813-0.75c0.657,0,1.313,0.25,1.815,0.75
				c0.482,0.484,0.752,1.129,0.752,1.815C111.406,33.998,111.138,34.641,110.654,35.126z"/>
		</g>
	</g>
	<g>
		<g>
			<path fill="#22427D" d="M92.865,37.606c-0.027-0.139-0.067-0.274-0.121-0.403c-0.055-0.129-0.121-0.254-0.198-0.371
				c-0.078-0.116-0.167-0.228-0.267-0.327s-0.209-0.188-0.326-0.266c-0.116-0.077-0.24-0.145-0.371-0.198s-0.264-0.095-0.4-0.123
				c-0.276-0.055-0.563-0.055-0.841,0c-0.14,0.028-0.272,0.069-0.401,0.123s-0.254,0.121-0.368,0.198
				c-0.119,0.078-0.229,0.167-0.33,0.266c-0.099,0.1-0.188,0.21-0.267,0.327c-0.076,0.117-0.145,0.242-0.197,0.371
				c-0.055,0.131-0.094,0.265-0.122,0.403c-0.027,0.14-0.039,0.279-0.039,0.42c0,0.14,0.012,0.279,0.039,0.419
				c0.028,0.137,0.067,0.273,0.122,0.401s0.121,0.253,0.197,0.372c0.079,0.115,0.168,0.229,0.267,0.327
				c0.103,0.098,0.211,0.188,0.33,0.265c0.114,0.078,0.239,0.145,0.368,0.199c0.132,0.054,0.267,0.094,0.401,0.122
				c0.14,0.028,0.28,0.04,0.421,0.04c0.139,0,0.28-0.014,0.42-0.04c0.137-0.028,0.271-0.068,0.4-0.122
				c0.128-0.055,0.255-0.121,0.371-0.199c0.117-0.076,0.229-0.167,0.326-0.265c0.398-0.401,0.629-0.953,0.629-1.52
				C92.908,37.885,92.895,37.746,92.865,37.606z"/>
		</g>
	</g>
	<g>
		<g>
			<path fill="#22427D" d="M82.617,35.878H37.982c-1.187,0-2.147,0.962-2.147,2.146c0,1.186,0.961,2.148,2.147,2.148h44.635
				c1.187,0,2.146-0.962,2.146-2.148C84.766,36.839,83.804,35.878,82.617,35.878z"/>
		</g>
	</g>
	<g>
		<g>
			<path fill="#22427D" d="M83.52,50.391H18.307c-1.186,0-2.146,0.962-2.146,2.147v42.353c0,1.188,0.961,2.147,2.146,2.147H83.52
				c1.187,0,2.146-0.964,2.146-2.147V52.539C85.667,51.353,84.705,50.391,83.52,50.391z M42.065,92.744H23.836l12.277-14.215
				l8.892,10.295L42.065,92.744z M47.435,92.744l4.005-5.34h10.414c1.187,0,2.147-0.963,2.147-2.146
				c0-1.186-0.961-2.148-2.147-2.148H54.66l1.508-2.008h13.484l8.733,11.646h-30.95V92.744z M59.39,76.805l3.521-4.695l3.521,4.695
				H59.39z M81.371,89.564L64.628,67.242c-0.405-0.543-1.042-0.858-1.718-0.858c-0.676,0-1.313,0.315-1.719,0.858l-13.55,18.065
				l-9.903-11.469c-0.408-0.471-1.002-0.742-1.625-0.742c-0.625,0-1.219,0.271-1.627,0.742L20.453,90.086v-35.4h60.916v34.878
				H81.371z"/>
		</g>
	</g>
	<g>
		<g>
			<path fill="#22427D" d="M45.469,57.153c-4.188,0-7.593,3.406-7.593,7.593c0,4.188,3.405,7.592,7.593,7.592
				c4.188,0,7.592-3.406,7.592-7.592S49.656,57.153,45.469,57.153z M45.469,68.044c-1.819,0-3.297-1.48-3.297-3.299
				c0-1.817,1.479-3.297,3.297-3.297c1.818,0,3.297,1.479,3.297,3.297C48.766,66.564,47.287,68.044,45.469,68.044z"/>
		</g>
	</g>
	<g>
		<g>
			<path fill="#22427D" d="M123.72,50.391H90.713c-1.188,0-2.148,0.962-2.148,2.147v42.353c0,1.188,0.963,2.147,2.148,2.147h33.007
				c1.188,0,2.147-0.964,2.147-2.147V52.539C125.867,51.353,124.906,50.391,123.72,50.391z M121.572,92.744H92.861V54.687h28.711
				V92.744z"/>
		</g>
	</g>
	<g>
		<g>
			<path fill="#22427D" d="M116.572,58.224H97.859c-1.187,0-2.146,0.962-2.146,2.146c0,1.187,0.962,2.148,2.146,2.148h18.713
				c1.188,0,2.146-0.962,2.146-2.148C118.719,59.186,117.759,58.224,116.572,58.224z"/>
		</g>
	</g>
	<g>
		<g>
			<path fill="#22427D" d="M116.572,66.843H97.859c-1.187,0-2.146,0.962-2.146,2.146c0,1.187,0.962,2.148,2.146,2.148h18.713
				c1.188,0,2.146-0.962,2.146-2.148C118.719,67.804,117.759,66.843,116.572,66.843z"/>
		</g>
	</g>
	<g>
		<g>
			<path fill="#22427D" d="M116.572,75.463H97.859c-1.187,0-2.146,0.963-2.146,2.148c0,1.185,0.962,2.146,2.146,2.146h18.713
				c1.188,0,2.146-0.961,2.146-2.146C118.718,76.426,117.759,75.463,116.572,75.463z"/>
		</g>
	</g>
	<g>
		<g>
			<path fill="#22427D" d="M99.967,85.811c-0.027-0.139-0.07-0.271-0.124-0.399c-0.054-0.132-0.118-0.257-0.196-0.371
				c-0.078-0.117-0.168-0.229-0.269-0.328c-0.498-0.498-1.239-0.729-1.938-0.586c-0.138,0.026-0.271,0.067-0.399,0.123
				c-0.129,0.054-0.254,0.121-0.371,0.196c-0.116,0.076-0.229,0.166-0.327,0.267c-0.099,0.101-0.188,0.211-0.267,0.328
				c-0.076,0.114-0.146,0.239-0.197,0.371c-0.053,0.129-0.094,0.265-0.122,0.399c-0.027,0.142-0.043,0.279-0.043,0.418
				c0,0.144,0.016,0.281,0.043,0.42c0.026,0.142,0.067,0.273,0.122,0.402c0.054,0.129,0.121,0.254,0.197,0.373
				c0.075,0.115,0.168,0.227,0.267,0.324c0.1,0.1,0.211,0.189,0.327,0.268c0.117,0.078,0.242,0.146,0.371,0.197
				c0.129,0.055,0.264,0.096,0.399,0.123c0.142,0.027,0.279,0.041,0.423,0.041c0.563,0,1.116-0.229,1.517-0.629
				c0.1-0.098,0.188-0.209,0.27-0.326c0.076-0.117,0.143-0.242,0.195-0.371s0.096-0.264,0.124-0.402
				c0.027-0.139,0.04-0.276,0.04-0.42C100.007,86.09,99.994,85.951,99.967,85.811z"/>
		</g>
	</g>
	<g>
		<g>
			<path fill="#22427D" d="M116.572,84.082h-10.57c-1.188,0-2.146,0.963-2.146,2.148c0,1.185,0.961,2.146,2.146,2.146h10.57
				c1.188,0,2.146-0.961,2.146-2.146C118.718,85.045,117.759,84.082,116.572,84.082z"/>
		</g>
	</g>
	<g>
		<g>
			<path fill="#22427D" d="M51.315,100.086H18.307c-1.186,0-2.146,0.963-2.146,2.146v22.121c0,1.188,0.961,2.147,2.146,2.147h33.008
				c1.187,0,2.147-0.963,2.147-2.147v-22.119C53.463,101.049,52.501,100.086,51.315,100.086z M49.168,122.207H20.455v-17.826h28.713
				V122.207L49.168,122.207z"/>
		</g>
	</g>
	<g>
		<g>
			<path fill="#22427D" d="M123.72,100.086H58.801c-1.186,0-2.146,0.963-2.146,2.146v22.121c0,1.188,0.961,2.147,2.146,2.147h64.919
				c1.188,0,2.147-0.963,2.147-2.147v-22.119C125.867,101.049,124.906,100.086,123.72,100.086z M121.572,122.207H60.949v-17.826
				h60.623V122.207L121.572,122.207z"/>
		</g>
	</g>
	<g>
		<g>
			<path fill="#22427D" d="M70.732,112.875c-0.027-0.139-0.068-0.273-0.123-0.4c-0.054-0.133-0.119-0.256-0.197-0.373
				c-0.077-0.117-0.168-0.227-0.267-0.326c-0.099-0.098-0.208-0.188-0.325-0.266c-0.117-0.076-0.242-0.145-0.371-0.197
				c-0.129-0.055-0.266-0.098-0.402-0.125c-0.277-0.053-0.563-0.053-0.84,0c-0.137,0.027-0.271,0.07-0.402,0.125
				c-0.128,0.053-0.253,0.121-0.369,0.197c-0.119,0.078-0.228,0.168-0.326,0.266c-0.1,0.101-0.188,0.209-0.27,0.326
				c-0.077,0.117-0.145,0.24-0.198,0.373c-0.054,0.127-0.095,0.264-0.122,0.4s-0.041,0.277-0.041,0.42
				c0,0.139,0.014,0.281,0.041,0.418s0.068,0.271,0.122,0.402s0.12,0.254,0.198,0.369c0.08,0.119,0.17,0.229,0.27,0.328
				c0.399,0.397,0.953,0.629,1.518,0.629c0.141,0,0.281-0.014,0.419-0.041c0.137-0.027,0.272-0.07,0.401-0.125
				c0.131-0.053,0.256-0.117,0.371-0.195c0.118-0.078,0.229-0.17,0.326-0.268c0.1-0.101,0.189-0.209,0.268-0.328
				c0.076-0.113,0.143-0.238,0.197-0.367c0.053-0.133,0.094-0.268,0.122-0.404c0.027-0.139,0.042-0.279,0.042-0.418
				C70.774,113.154,70.76,113.012,70.732,112.875z"/>
		</g>
	</g>
	<g>
		<g>
			<path fill="#22427D" d="M112.835,111.146H76.77c-1.188,0-2.147,0.963-2.147,2.147s0.963,2.146,2.147,2.146h36.065
				c1.187,0,2.146-0.963,2.146-2.146C114.98,112.109,114.021,111.146,112.835,111.146z"/>
		</g>
	</g>
</g>
</svg>
