<?xml version="1.0" encoding="utf-8"?>
<!-- Generator: Adobe Illustrator 16.0.0, SVG Export Plug-In . SVG Version: 6.00 Build 0)  -->
<!DOCTYPE svg PUBLIC "-//W3C//DTD SVG 1.1//EN" "http://www.w3.org/Graphics/SVG/1.1/DTD/svg11.dtd">
<svg version="1.1" id="Layer_1" xmlns="http://www.w3.org/2000/svg" xmlns:xlink="http://www.w3.org/1999/xlink" x="0px" y="0px"
	 width="142px" height="142px" viewBox="0 0 142 142" enable-background="new 0 0 142 142" xml:space="preserve">
<g>
	<path fill="#22427D" d="M98.657,5.049H43.343c-4.698,0.006-8.504,3.813-8.51,8.51v114.884c0.006,4.695,3.813,8.502,8.51,8.51
		h55.314c4.696-0.008,8.503-3.813,8.51-8.51V13.559C107.16,8.861,103.354,5.055,98.657,5.049z M80.956,9.303l-1.196,4.256H62.025
		l-1.064-4.256H80.956z M102.912,128.441c-0.003,2.349-1.906,4.252-4.255,4.254H43.343c-2.349-0.002-4.252-1.905-4.255-4.254V13.559
		c0.002-2.349,1.906-4.252,4.255-4.255h13.23l1.726,6.899c0.237,0.947,1.087,1.611,2.063,1.611H81.37
		c0.953,0,1.789-0.633,2.048-1.552l1.958-6.959h13.28c2.349,0.003,4.252,1.907,4.255,4.255L102.912,128.441L102.912,128.441z"/>
	<path fill="#22427D" d="M60.363,124.188H45.47c-1.175,0-2.127,0.953-2.127,2.127c0,1.176,0.952,2.129,2.127,2.129h14.895
		c1.175,0,2.127-0.953,2.127-2.129C62.49,125.141,61.538,124.188,60.363,124.188z"/>
	<path fill="#22427D" d="M68.873,124.188h-2.127c-1.175,0-2.128,0.953-2.128,2.127c0,1.176,0.953,2.129,2.128,2.129h2.127
		c1.175,0,2.127-0.953,2.127-2.129C71,125.141,70.047,124.188,68.873,124.188z"/>
	<path fill="#22427D" d="M78.479,58.538c-1.009-0.604-2.313-0.277-2.92,0.729l0,0L62.794,80.543
		c-0.604,1.008-0.278,2.314,0.729,2.919c1.007,0.604,2.313,0.276,2.918-0.729l0,0l12.766-21.273
		C79.811,60.45,79.484,59.143,78.479,58.538L78.479,58.538z"/>
	<path fill="#22427D" d="M85.427,59.033c-0.735-0.918-2.073-1.065-2.991-0.332s-1.064,2.072-0.332,2.99L89.55,71l-7.446,9.309
		c-0.732,0.916-0.586,2.256,0.332,2.99c0.918,0.732,2.256,0.586,2.991-0.33l8.509-10.639c0.623-0.777,0.623-1.882,0-2.66
		L85.427,59.033z"/>
	<path fill="#22427D" d="M56.574,82.969c0.734,0.916,2.072,1.063,2.99,0.33c0.918-0.734,1.065-2.074,0.332-2.99L52.45,71
		l7.446-9.309c0.733-0.916,0.586-2.256-0.332-2.99c-0.918-0.735-2.256-0.586-2.99,0.332l-8.51,10.637
		c-0.623,0.778-0.623,1.883,0,2.66L56.574,82.969z"/>
</g>
</svg>
