<svg xmlns="http://www.w3.org/2000/svg" width="104" height="104" viewBox="0 0 104 104">
    <g fill="none" fill-rule="nonzero">
        <circle cx="52" cy="52" r="52" fill="#FE7383"/>
        <path fill="#FFF" d="M52 42c-6.627 0-12-5.373-12-12s5.373-12 12-12 12 5.373 12 12-5.373 12-12 12zm0-4a8 8 0 1 0 0-16 8 8 0 0 0 0 16zM36 63h32v-6.5a6.5 6.5 0 0 0-6.5-6.5h-19a6.5 6.5 0 0 0-6.5 6.5V63zm6.5-17h19C67.299 46 72 50.701 72 56.5V65a2 2 0 0 1-2 2H34a2 2 0 0 1-2-2v-8.5C32 50.701 36.701 46 42.5 46z"/>
        <path fill="#FFF" d="M24 67v4h56v-4H24zm-2-4h60a2 2 0 0 1 2 2v8a2 2 0 0 1-2 2H22a2 2 0 0 1-2-2v-8a2 2 0 0 1 2-2z"/>
    </g>
</svg>
