<svg xmlns="http://www.w3.org/2000/svg" width="80" height="80" viewBox="0 0 80 80">
    <g fill="#000" fill-opacity=".1" fill-rule="nonzero">
        <path d="M42 38h4a2 2 0 1 1 0 4h-4v4a2 2 0 1 1-4 0v-4h-4a2 2 0 1 1 0-4h4v-4a2 2 0 1 1 4 0v4z"/>
        <circle cx="40" cy="18" r="2"/>
        <circle cx="40" cy="78" r="2"/>
        <circle cx="40" cy="2" r="2"/>
        <circle cx="40" cy="62" r="2"/>
        <circle cx="62" cy="40" r="2"/>
        <circle cx="2" cy="40" r="2"/>
        <circle cx="78" cy="40" r="2"/>
        <circle cx="18" cy="40" r="2"/>
    </g>
</svg>
