<svg xmlns="http://www.w3.org/2000/svg" width="110" height="110" viewBox="0 0 110 110">
    <g fill="none" fill-rule="nonzero">
        <path d="M0 0h110v110H0z"/>
        <path d="M0 4h104v104H0z"/>
        <g fill="#EE3B68" transform="translate(8 39)">
            <path d="M68 27.625L72 26v32a4 4 0 0 1-4 4H12a4 4 0 0 1-4-4v-6h4v6h56V27.625zm0 0L72 26v32a4 4 0 0 1-4 4H12a4 4 0 0 1-4-4v-6h4v6h56V27.625z"/>
            <path d="M68 26h4v4h-4zM31 6v4H4v40h56V17h4v33a4 4 0 0 1-4 4H4a4 4 0 0 1-4-4V10a4 4 0 0 1 4-4h27z"/>
            <rect width="8" height="10" x="12" rx="4"/>
            <rect width="8" height="8" x="12" y="18" rx="2"/>
            <rect width="8" height="8" x="12" y="34" rx="2"/>
            <rect width="8" height="8" x="28" y="18" rx="2"/>
            <rect width="8" height="8" x="28" y="34" rx="2"/>
            <rect width="8" height="8" x="44" y="18" rx="2"/>
            <rect width="8" height="8" x="44" y="34" rx="2"/>
        </g>
        <g fill="#EE3B68" transform="rotate(-45 51.355 -18.255)">
            <path d="M22.9 44.828c-12.15 0-22-9.85-22-22s9.85-22 22-22 22 9.85 22 22-9.85 22-22 22zm0-4c9.94 0 18-8.058 18-18 0-9.94-8.06-18-18-18-9.942 0-18 8.06-18 18 0 9.942 8.058 18 18 18z"/>
            <rect width="8" height="30" x="18.899" y="40.828" rx="4"/>
        </g>
    </g>
</svg>
