<svg xmlns="http://www.w3.org/2000/svg" width="110" height="110" viewBox="0 0 110 110">
    <g fill="none" fill-rule="nonzero">
        <path d="M0 0h110v110H0z"/>
        <g fill="#EE3B68">
            <path d="M14.737 36.653l25.258 43.748a4 4 0 0 0 1.742 1.61l10.032 4.783.874-11.079a4 4 0 0 0-.524-2.314L26.862 29.653l-12.125 7zm-3.732-2.464l15.589-9a2 2 0 0 1 2.732.732l26.257 45.48a8 8 0 0 1 1.047 4.629l-.873 11.079a4 4 0 0 1-5.71 3.296l-10.031-4.783A8 8 0 0 1 36.53 82.4L10.273 36.92a2 2 0 0 1 .732-2.732z"/>
            <path d="M18.567 33.288l3.464-2 26 45.033-3.464 2z"/>
            <path d="M36.139 79.723l16.454-9.5 2 3.464-16.454 9.5z"/>
        </g>
        <path fill="#EE3B68" d="M51.3 87h26a2 2 0 1 1 0 4h-26v-4z"/>
        <g fill="#EE3B68">
            <path d="M62.786 41.662a2 2 0 0 1-2.973 2.676L49.609 33l10.204-11.338a2 2 0 0 1 2.973 2.676L54.99 33l7.796 8.662zM90.918 33l-7.796 8.662a2 2 0 0 0 2.973 2.676L96.3 33 86.095 21.662a2 2 0 0 0-2.973 2.676L90.918 33zM77.434 17.278a2 2 0 0 1 3.73 1.444l-12 31a2 2 0 1 1-3.73-1.444l12-31z"/>
        </g>
    </g>
</svg>
