<svg xmlns="http://www.w3.org/2000/svg" width="32" height="32" viewBox="0 0 32 32">
    <g fill="none" fill-rule="nonzero">
        <path d="M0 0h32v32H0z"/>
        <g fill="#FFF">
            <path d="M21.56 4H11.313A6.32 6.32 0 0 0 5 10.312v10.249a6.32 6.32 0 0 0 6.312 6.312h10.249a6.32 6.32 0 0 0 6.312-6.312V10.312A6.32 6.32 0 0 0 21.561 4zm4.284 16.56a4.288 4.288 0 0 1-4.283 4.284H11.312a4.287 4.287 0 0 1-4.283-4.283V10.312a4.288 4.288 0 0 1 4.283-4.283h10.249a4.288 4.288 0 0 1 4.283 4.283v10.249z"/>
            <path d="M16.437 9.543a5.9 5.9 0 0 0-5.894 5.894 5.9 5.9 0 0 0 5.894 5.893 5.9 5.9 0 0 0 5.893-5.893 5.9 5.9 0 0 0-5.893-5.894zm0 9.758a3.869 3.869 0 0 1-3.865-3.864 3.869 3.869 0 0 1 3.865-3.865 3.869 3.869 0 0 1 3.864 3.865 3.869 3.869 0 0 1-3.864 3.864zM22.578 7.822c-.391 0-.776.158-1.052.436-.277.276-.437.66-.437 1.052s.16.776.437 1.053a1.5 1.5 0 0 0 1.052.436c.392 0 .775-.16 1.052-.436a1.5 1.5 0 0 0 .436-1.053c0-.392-.159-.776-.436-1.052a1.495 1.495 0 0 0-1.052-.436z"/>
        </g>
    </g>
</svg>
