<svg xmlns="http://www.w3.org/2000/svg" width="32" height="32" viewBox="0 0 32 32">
    <g fill="none" fill-rule="nonzero">
        <path d="M0 0h32v32H0z"/>
        <path fill="#FFF" d="M29 8.38c-.92.4-1.907.673-2.945.794a5.08 5.08 0 0 0 2.254-2.788c-.993.578-2.09.997-3.258 1.224a5.155 5.155 0 0 0-3.743-1.592c-2.833 0-5.13 2.257-5.13 5.04 0 .395.046.78.134 1.15a14.644 14.644 0 0 1-10.57-5.269 4.94 4.94 0 0 0-.694 2.534c0 1.75.906 3.293 2.281 4.196a5.196 5.196 0 0 1-2.323-.632v.063c0 2.442 1.769 4.48 4.113 4.943-.43.114-.882.177-1.35.177-.332 0-.652-.032-.966-.094.653 2.005 2.546 3.462 4.79 3.502a10.402 10.402 0 0 1-6.37 2.155c-.414 0-.821-.025-1.223-.07a14.678 14.678 0 0 0 7.861 2.27c9.434 0 14.591-7.683 14.591-14.346l-.017-.652A10.148 10.148 0 0 0 29 8.38z"/>
    </g>
</svg>
