<?xml version="1.0" encoding="utf-8"?>
<!-- Generator: Adobe Illustrator 16.0.0, SVG Export Plug-In . SVG Version: 6.00 Build 0)  -->
<!DOCTYPE svg PUBLIC "-//W3C//DTD SVG 1.1//EN" "http://www.w3.org/Graphics/SVG/1.1/DTD/svg11.dtd">
<svg version="1.1" id="Layer_5" xmlns="http://www.w3.org/2000/svg" xmlns:xlink="http://www.w3.org/1999/xlink" x="0px" y="0px"
	 width="142px" height="142px" viewBox="0 0 142 142" enable-background="new 0 0 142 142" xml:space="preserve">
<g>
	<path fill="#22427D" d="M77.193,103.516H64.807c-1.709,0-3.098,1.389-3.098,3.098v3.097c0,1.708,1.389,3.097,3.098,3.097h12.386
		c1.707,0,3.098-1.389,3.098-3.097v-3.097C80.29,104.902,78.9,103.516,77.193,103.516z M64.807,109.708v-3.097h12.386l0.004,3.097
		H64.807z"/>
	<path fill="#22427D" d="M63.258,29.191h3.098v3.097h-3.098V29.191z"/>
	<path fill="#22427D" d="M69.452,29.191h9.291v3.097h-9.291V29.191z"/>
	<path fill="#22427D" d="M114.354,46.225h-9.289V30.741c0-4.269-3.474-7.742-7.741-7.742H44.677c-4.269,0-7.741,3.474-7.741,7.742
		v24.133l-3.738,3.738h-5.553c-2.562,0-4.646,2.084-4.646,4.645v12.388c0,2.563,2.084,4.646,4.646,4.646h9.291v30.969
		c0,4.27,3.473,7.741,7.741,7.741h52.646c4.27,0,7.741-3.474,7.741-7.741V71.643l3.737-3.738h5.552c2.563,0,4.646-2.084,4.646-4.646
		V50.871C119,48.309,116.916,46.225,114.354,46.225z M44.677,26.096h52.646c2.562,0,4.646,2.084,4.646,4.646v15.483h-3.097v-7.742
		c0-1.709-1.39-3.098-3.099-3.098H46.225c-1.707,0-3.097,1.389-3.097,3.098v14.271c-0.54-0.209-1.123-0.336-1.735-0.336
		c-0.471,0-0.923,0.088-1.36,0.217V30.74C40.032,28.18,42.116,26.096,44.677,26.096z M94.227,67.9h1.549v1.361V97.32h-3.098v-8.389
		c0-4.227-2.473-8.014-6.191-9.781V57.063c0-8.539-6.946-15.484-15.484-15.484s-15.483,6.945-15.483,15.484V79.15
		c-3.722,1.771-6.193,5.557-6.193,9.781v8.389h-3.098V80.288h1.549c2.562,0,4.646-2.084,4.646-4.646V63.255
		c0-2.561-2.084-4.645-4.646-4.645h-1.549v-1.361V38.48h49.549v7.742h-1.549c-2.562,0-4.646,2.084-4.646,4.646v12.387
		C89.581,65.816,91.665,67.9,94.227,67.9z M75.281,84.934h-8.563l-1.674-5.355l0.985-0.27c1.796-0.49,3.103-2.01,3.365-3.813
		c0.522,0.091,1.057,0.148,1.604,0.148s1.082-0.06,1.604-0.148c0.264,1.805,1.568,3.322,3.365,3.813l0.984,0.27L75.281,84.934z
		 M61.709,66.354c-1.708,0-3.097-1.39-3.097-3.098s1.389-3.097,3.097-3.097V66.354z M61.709,69.45h0.542
		c0.744,2.092,2.209,3.837,4.104,4.937v0.438c0,0.697-0.47,1.313-1.142,1.496l-6.601,1.801v-9.532
		C59.527,69.121,60.576,69.45,61.709,69.45z M71,72.547c-3.416,0-6.193-2.777-6.193-6.193v-6.325
		c1.769-0.304,3.398-1.127,4.713-2.395c2.112,1.638,4.693,2.524,7.409,2.524h0.267v6.194C77.193,69.77,74.416,72.547,71,72.547
		L71,72.547z M76.786,76.32c-0.672-0.186-1.142-0.797-1.142-1.493v-0.438c1.895-1.101,3.358-2.847,4.104-4.938h0.542
		c1.134,0,2.183-0.328,3.097-0.861v9.531L76.786,76.32z M80.29,60.159c1.708,0,3.097,1.389,3.097,3.097s-1.389,3.098-3.097,3.098
		V60.159z M83.387,57.923c-0.914-0.532-1.963-0.86-3.097-0.86h-1.548h-1.813c-2.411,0-4.678-0.938-6.382-2.644l-1.095-1.095
		l-2.002,2.002c-1.12,1.12-2.609,1.736-4.192,1.736H61.71c-1.133,0-2.183,0.328-3.097,0.86v-0.86c0-6.83,5.557-12.388,12.387-12.388
		s12.387,5.558,12.387,12.388V57.923z M58.125,81.464l3.932-1.071l5.289,16.93H52.42v-8.389
		C52.419,85.451,54.766,82.381,58.125,81.464L58.125,81.464z M70.59,97.32l-2.902-9.291h6.626l-2.902,9.291H70.59z M79.945,80.393
		l3.932,1.071c3.357,0.917,5.704,3.987,5.704,7.47v8.389H74.654L79.945,80.393z M26.098,75.645V63.256
		c0-0.854,0.694-1.548,1.547-1.548h6.834l5.687-5.687c0.328-0.327,0.763-0.508,1.228-0.508c0.957,0,1.735,0.779,1.735,1.736v2.909
		v1.548h4.646c0.854,0,1.549,0.693,1.549,1.548v12.389c0,0.854-0.695,1.549-1.549,1.549h-20.13
		C26.792,77.191,26.098,76.498,26.098,75.645z M97.322,115.9H44.677c-2.561,0-4.645-2.084-4.645-4.646V80.288h3.097V97.32
		c0,1.707,1.389,3.097,3.098,3.097h49.548c1.707,0,3.098-1.39,3.098-3.097V73.758c0.54,0.209,1.122,0.336,1.734,0.336
		c0.472,0,0.924-0.088,1.36-0.217v37.378C101.968,113.816,99.884,115.9,97.322,115.9z M115.902,63.256
		c0,0.855-0.694,1.549-1.549,1.549h-6.834l-5.688,5.687C101.504,70.82,101.068,71,100.604,71c-0.957,0-1.734-0.778-1.734-1.735
		v-2.91v-1.547h-4.646c-0.854,0-1.549-0.694-1.549-1.55V50.87c0-0.854,0.695-1.548,1.549-1.548h20.129
		c0.854,0,1.549,0.693,1.549,1.548L115.902,63.256L115.902,63.256z"/>
	<path fill="#22427D" d="M95.773,52.417h17.033v3.097H95.773V52.417z"/>
	<path fill="#22427D" d="M109.71,58.611h3.097v3.097h-3.097V58.611z"/>
	<path fill="#22427D" d="M95.773,58.611h10.84v3.097h-10.84V58.611z"/>
	<path fill="#22427D" d="M29.193,70.998h10.839v3.098H29.193V70.998z"/>
	<path fill="#22427D" d="M43.129,70.998h3.098v3.098h-3.098V70.998z"/>
	<path fill="#22427D" d="M29.193,64.805h17.031v3.098H29.193V64.805z"/>
</g>
</svg>
