<?xml version="1.0" encoding="UTF-8"?>
<!-- Generator: Adobe Illustrator 16.0.0, SVG Export Plug-In . SVG Version: 6.00 Build 0)  -->
<!DOCTYPE svg PUBLIC "-//W3C//DTD SVG 1.1//EN" "http://www.w3.org/Graphics/SVG/1.1/DTD/svg11.dtd">
<svg version="1.1" id="Layer_1" xmlns="http://www.w3.org/2000/svg" xmlns:xlink="http://www.w3.org/1999/xlink" x="0px" y="0px" width="142px" height="142px" viewBox="185 185 142 142" enable-background="new 185 185 142 142" xml:space="preserve">
<g id="Page-1">
	<g id="_x30_57---Design-Ad-Website" transform="translate(-1)">
		<path id="Shape" fill="#FFFFFF" d="M209.302,291.332h28.941l-3.533,7.066h-5.975c-2.928,0-5.301,2.373-5.301,5.301    c0,2.927,2.373,5.3,5.301,5.3h49.466c2.927,0,5.3-2.373,5.3-5.3c0-2.928-2.373-5.301-5.3-5.301h-5.975l-3.533-7.066h28.941    c3.011-0.097,5.379-2.606,5.3-5.618v-62.992l1.69-1.69l0.015-0.021l3.795-3.791c2.087-2.094,2.087-5.48,0-7.574l-5.079-5.077    c-2.093-2.088-5.481-2.088-7.574,0l-3.791,3.793l-0.021,0.015l-1.69,1.69h-80.977c-3.012,0.096-5.379,2.606-5.3,5.618v70.03    C203.923,288.726,206.29,291.235,209.302,291.332z M279.968,303.699c0,0.976-0.791,1.767-1.767,1.767h-49.466    c-0.977,0-1.768-0.791-1.768-1.767c0-0.977,0.791-1.768,1.768-1.768h49.466C279.177,301.932,279.968,302.723,279.968,303.699z     M268.276,298.398H238.66l3.533-7.066h22.55L268.276,298.398z M276.201,230.626l6.17,6.167l-9.461,3.275L276.201,230.626z     M283.035,232.463l15.262-15.262l2.581,2.581l-15.257,15.262L283.035,232.463z M298.279,207.062    c0.342-0.342,0.806-0.534,1.289-0.534s0.947,0.192,1.288,0.534l5.081,5.081c0.712,0.712,0.712,1.866,0,2.578l-2.562,2.56    l-7.656-7.653L298.279,207.062z M293.218,212.122l2.581,2.581l-15.262,15.262l-2.581-2.586L293.218,212.122z M209.302,213.599    h77.443l-12.544,12.543c-0.186,0.192-0.324,0.424-0.406,0.679h-0.012l-4.218,12.097c-0.383,1.081-0.219,2.281,0.443,3.219    c0.661,0.938,1.736,1.495,2.884,1.496c0.409,0,0.815-0.069,1.201-0.205l12.097-4.212v-0.012c0.254-0.082,0.486-0.221,0.678-0.406    l12.544-12.544v50.946h-77.744c-0.976,0-1.767,0.79-1.767,1.767c0,0.976,0.791,1.767,1.767,1.767h77.733v4.981    c0.066,1.057-0.714,1.977-1.767,2.085h-88.333c-1.053-0.108-1.833-1.028-1.767-2.085v-4.981h7.066    c0.976,0,1.767-0.791,1.767-1.767c0-0.977-0.791-1.767-1.767-1.767h-7.066v-61.516    C207.469,214.627,208.249,213.707,209.302,213.599L209.302,213.599z"/>
		<path id="Shape_1_" fill="#FFFFFF" d="M216.368,241.865h42.399c2.928,0,5.3-2.373,5.3-5.3v-14.134c0-2.927-2.372-5.3-5.3-5.3    h-42.399c-2.927,0-5.3,2.373-5.3,5.3v14.134C211.068,239.492,213.441,241.865,216.368,241.865z M260.534,222.432v5.3h-5.299    c-0.977,0-1.768-0.791-1.768-1.767v-5.3h5.3C259.743,220.665,260.534,221.456,260.534,222.432z M214.602,222.432    c0-0.976,0.791-1.767,1.767-1.767h33.566v5.3c0,2.928,2.373,5.301,5.301,5.301h5.299v5.3c0,0.976-0.791,1.767-1.767,1.767h-42.399    c-0.976,0-1.767-0.791-1.767-1.767V222.432z"/>
		<path id="Shape_2_" fill="#FFFFFF" d="M239.335,245.398h-22.967c-1.951,0-3.533,1.582-3.533,3.533v21.2    c0,1.951,1.582,3.533,3.533,3.533h22.967c1.951,0,3.533-1.582,3.533-3.533v-21.2C242.868,246.98,241.286,245.398,239.335,245.398z     M239.335,248.932v14.134h-22.967v-14.134H239.335z M216.368,270.132v-3.533h22.967v3.533H216.368z"/>
		<path id="Shape_3_" fill="#FFFFFF" d="M225.72,259.015c0.689,0.689,1.808,0.689,2.497,0l1.768-1.767    c0.689-0.69,0.689-1.809,0-2.499l-1.768-1.767c-0.692-0.669-1.795-0.659-2.476,0.021c-0.682,0.682-0.691,1.784-0.021,2.477    l0.518,0.518l-0.518,0.519C225.029,257.206,225.029,258.324,225.72,259.015z"/>
		<path id="Shape_4_" fill="#FFFFFF" d="M246.401,248.932c0,0.976,0.791,1.767,1.767,1.767h45.934c0.976,0,1.767-0.791,1.767-1.767    s-0.791-1.767-1.767-1.767h-45.934C247.192,247.165,246.401,247.956,246.401,248.932z"/>
		<path id="Shape_5_" fill="#FFFFFF" d="M294.102,254.231h-7.067c-0.976,0-1.767,0.791-1.767,1.767c0,0.977,0.791,1.768,1.767,1.768    h7.067c0.976,0,1.767-0.791,1.767-1.768C295.868,255.022,295.077,254.231,294.102,254.231z"/>
		<path id="Shape_6_" fill="#FFFFFF" d="M248.168,257.766h31.8c0.976,0,1.767-0.791,1.767-1.768c0-0.976-0.791-1.767-1.767-1.767    h-31.8c-0.976,0-1.767,0.791-1.767,1.767C246.401,256.975,247.192,257.766,248.168,257.766z"/>
		<path id="Shape_7_" fill="#FFFFFF" d="M294.102,261.299h-33.567c-0.976,0-1.767,0.791-1.767,1.767s0.791,1.767,1.767,1.767h33.567    c0.976,0,1.767-0.791,1.767-1.767S295.077,261.299,294.102,261.299z"/>
		<path id="Shape_8_" fill="#FFFFFF" d="M248.168,264.832h5.3c0.977,0,1.768-0.791,1.768-1.767s-0.791-1.767-1.768-1.767h-5.3    c-0.976,0-1.767,0.791-1.767,1.767S247.192,264.832,248.168,264.832z"/>
		<path id="Shape_9_" fill="#FFFFFF" d="M271.135,268.365h-22.967c-0.976,0-1.767,0.791-1.767,1.767s0.791,1.767,1.767,1.767h22.967    c0.976,0,1.767-0.791,1.767-1.767S272.11,268.365,271.135,268.365z"/>
	</g>
</g>
</svg>