<?xml version="1.0" encoding="utf-8"?>
<!-- Generator: Adobe Illustrator 16.0.0, SVG Export Plug-In . SVG Version: 6.00 Build 0)  -->
<!DOCTYPE svg PUBLIC "-//W3C//DTD SVG 1.1//EN" "http://www.w3.org/Graphics/SVG/1.1/DTD/svg11.dtd">
<svg version="1.1" id="Layer_1" xmlns="http://www.w3.org/2000/svg" xmlns:xlink="http://www.w3.org/1999/xlink" x="0px" y="0px"
	 width="142px" height="142px" viewBox="0 0 142 142" enable-background="new 0 0 142 142" xml:space="preserve">
<g id="Outline">
	<path fill="#22427D" d="M91.057,47.896l9.273-7.42l-2.506-3.132l-6.771,5.415V38.91c0-1.107-0.896-2.005-2.006-2.005h-36.1
		c-1.108,0-2.006,0.897-2.006,2.005v3.85l-6.77-5.415l-2.507,3.131l9.274,7.42v21.098h-12.03v4.011h12.032v21.097l-9.274,7.422
		l2.507,3.133l6.77-5.416v3.85c0,1.107,0.896,2.006,2.006,2.006h36.1c1.107,0,2.007-0.896,2.007-2.006v-3.85l6.77,5.414l2.506-3.133
		l-9.273-7.42V73.005h12.031v-4.011H91.057V47.896z M87.045,85.039H54.956V73.006h32.089V85.039z M54.956,68.995V56.961h32.089
		v12.034H54.956z M87.045,40.917v12.034H54.956V40.917H87.045z M54.956,101.084V89.051h32.089v12.033H54.956z"/>
	<path fill="#22427D" d="M58.965,44.928h4.011v4.012h-4.011V44.928z"/>
	<path fill="#22427D" d="M66.989,44.928h16.044v4.012H66.989V44.928z"/>
	<path fill="#22427D" d="M58.965,60.973h4.011v4.01h-4.011V60.973z"/>
	<path fill="#22427D" d="M66.989,60.973h16.044v4.01H66.989V60.973z"/>
	<path fill="#22427D" d="M58.965,77.018h4.011v4.012h-4.011V77.018z"/>
	<path fill="#22427D" d="M66.989,77.018h16.044v4.012H66.989V77.018z"/>
	<path fill="#22427D" d="M58.965,93.063h4.011v4.012h-4.011V93.063z"/>
	<path fill="#22427D" d="M66.989,93.063h16.044v4.012H66.989V93.063z"/>
	<path fill="#22427D" d="M115.121,28.883c2.215-0.002,4.01-1.797,4.012-4.011V14.844c-0.002-2.214-1.797-4.009-4.012-4.011H99.078
		c-2.215,0.002-4.01,1.797-4.012,4.011v10.028c0.002,2.214,1.797,4.009,4.012,4.011h6.016v4.012h-4.01v4.012h12.033v-4.012h-4.012
		v-4.012H115.121z M99.078,14.844h16.043l0.004,10.028H99.078V14.844z"/>
	<path fill="#22427D" d="M28.882,32.895v4.012h12.034v-4.012h-4.011v-4.012h6.017c2.215-0.002,4.009-1.797,4.011-4.011V14.844
		c-0.002-2.214-1.796-4.009-4.011-4.011H26.878c-2.214,0.002-4.009,1.797-4.011,4.011v10.028c0.002,2.214,1.797,4.009,4.011,4.011
		h6.018v4.012H28.882z M26.876,14.844H42.92l0.003,10.028H26.875L26.876,14.844L26.876,14.844z"/>
	<path fill="#22427D" d="M14.843,77.018h6.018v4.012h-4.012v4.012h12.033v-4.012h-4.011v-4.012h6.017
		c2.215-0.004,4.01-1.797,4.012-4.012V62.979c-0.002-2.215-1.797-4.01-4.012-4.012H14.844c-2.214,0.002-4.009,1.797-4.011,4.012
		v10.027C10.834,75.221,12.629,77.014,14.843,77.018z M14.843,62.979h16.044l0.003,10.027H14.843V62.979z"/>
	<path fill="#22427D" d="M127.156,60.973h-16.045c-2.215,0.002-4.01,1.797-4.012,4.01V75.01c0.002,2.215,1.797,4.01,4.012,4.012
		h6.016v4.013h-4.01v4.012h12.033v-4.012h-4.015v-4.013h6.021c2.213-0.002,4.008-1.797,4.01-4.012V64.982
		C131.164,62.77,129.369,60.975,127.156,60.973z M111.111,75.012V64.984h16.045l0.002,10.026h-16.047V75.012z"/>
	<path fill="#22427D" d="M115.121,123.146c2.215-0.006,4.01-1.799,4.012-4.014v-10.025c-0.002-2.217-1.797-4.012-4.012-4.014H99.078
		c-2.215,0.004-4.01,1.797-4.012,4.014v10.025c0.002,2.215,1.797,4.008,4.012,4.014h6.016v4.01h-4.01v4.012h12.033v-4.012h-4.012
		v-4.01H115.121z M99.078,109.105h16.043l0.004,10.026H99.078V109.105z"/>
	<path fill="#22427D" d="M42.921,123.146c2.215-0.006,4.01-1.799,4.012-4.014v-10.025c-0.002-2.217-1.797-4.012-4.012-4.014H26.877
		c-2.214,0.004-4.009,1.797-4.011,4.014v10.025c0.002,2.215,1.797,4.008,4.011,4.014h6.017v4.01h-4.012v4.012h12.034v-4.012h-4.011
		v-4.01H42.921z M26.876,109.105H42.92l0.003,10.026H26.875L26.876,109.105L26.876,109.105z"/>
</g>
</svg>
