<?xml version="1.0" encoding="utf-8"?>
<!-- Generator: Adobe Illustrator 16.0.0, SVG Export Plug-In . SVG Version: 6.00 Build 0)  -->
<!DOCTYPE svg PUBLIC "-//W3C//DTD SVG 1.1//EN" "http://www.w3.org/Graphics/SVG/1.1/DTD/svg11.dtd">
<svg version="1.1" id="Layer_1" xmlns="http://www.w3.org/2000/svg" xmlns:xlink="http://www.w3.org/1999/xlink" x="0px" y="0px"
	 width="142px" height="142px" viewBox="185 185 142 142" enable-background="new 185 185 142 142" xml:space="preserve">
<g>
	<path fill="#EE3B68" d="M283.657,190.049h-55.314c-4.698,0.006-8.504,3.813-8.51,8.51v114.883c0.006,4.697,3.813,8.503,8.51,8.51
		h55.314c4.696-0.007,8.503-3.813,8.51-8.51V198.559C292.16,193.861,288.354,190.055,283.657,190.049z M265.956,194.303
		l-1.196,4.255h-17.735l-1.064-4.255H265.956z M287.912,313.441c-0.003,2.349-1.906,4.252-4.255,4.255h-55.314
		c-2.349-0.003-4.252-1.906-4.255-4.255V198.559c0.002-2.349,1.906-4.252,4.255-4.255h13.23l1.726,6.899
		c0.237,0.947,1.087,1.611,2.063,1.611h21.008c0.953,0,1.789-0.633,2.048-1.551l1.958-6.959h13.28
		c2.349,0.003,4.252,1.907,4.255,4.255V313.441z"/>
	<path fill="#EE3B68" d="M245.363,309.188H230.47c-1.175,0-2.127,0.952-2.127,2.126c0,1.176,0.952,2.128,2.127,2.128h14.893
		c1.175,0,2.127-0.952,2.127-2.128C247.49,310.14,246.538,309.188,245.363,309.188z"/>
	<path fill="#EE3B68" d="M253.873,309.188h-2.127c-1.175,0-2.128,0.952-2.128,2.126c0,1.176,0.953,2.128,2.128,2.128h2.127
		c1.175,0,2.127-0.952,2.127-2.128C256,310.14,255.047,309.188,253.873,309.188z"/>
	<path fill="#EE3B68" d="M263.478,243.538c-1.008-0.604-2.314-0.277-2.919,0.73l0,0l-12.765,21.275
		c-0.605,1.007-0.278,2.314,0.729,2.919c1.008,0.604,2.314,0.277,2.919-0.729l0,0l12.765-21.275
		C264.811,245.45,264.484,244.143,263.478,243.538L263.478,243.538z"/>
	<path fill="#EE3B68" d="M270.427,244.033c-0.735-0.918-2.074-1.066-2.991-0.332c-0.918,0.734-1.066,2.073-0.332,2.991L274.55,256
		l-7.446,9.308c-0.734,0.917-0.586,2.257,0.332,2.991c0.917,0.733,2.256,0.586,2.991-0.331l8.509-10.638
		c0.623-0.777,0.623-1.882,0-2.66L270.427,244.033z"/>
	<path fill="#EE3B68" d="M241.574,267.968c0.734,0.917,2.073,1.064,2.99,0.331c0.918-0.734,1.066-2.074,0.332-2.991L237.45,256
		l7.446-9.308c0.734-0.917,0.586-2.256-0.332-2.991c-0.917-0.735-2.256-0.586-2.99,0.332l-8.51,10.637
		c-0.623,0.778-0.623,1.883,0,2.66L241.574,267.968z"/>
</g>
</svg>
