<?xml version="1.0" encoding="utf-8"?>
<!-- Generator: Adobe Illustrator 16.0.0, SVG Export Plug-In . SVG Version: 6.00 Build 0)  -->
<!DOCTYPE svg PUBLIC "-//W3C//DTD SVG 1.1//EN" "http://www.w3.org/Graphics/SVG/1.1/DTD/svg11.dtd">
<svg version="1.1" id="Layer_5" xmlns="http://www.w3.org/2000/svg" xmlns:xlink="http://www.w3.org/1999/xlink" x="0px" y="0px"
	 width="142px" height="142px" viewBox="0 0 142 142" enable-background="new 0 0 142 142" xml:space="preserve">
<g>
	<path fill="#22427D" d="M105.059,123.745l4.019-28.001l3.959,0.566l-4.019,28.002L105.059,123.745z"/>
	<path fill="#22427D" d="M113.586,105.413l4.586,4.586l-4.586,4.586l2.828,2.828l7.414-7.414l-7.414-7.414L113.586,105.413z"/>
	<path fill="#22427D" d="M101.586,102.585l-7.414,7.414l7.414,7.414l2.828-2.828l-4.586-4.586l4.586-4.586L101.586,102.585z"/>
	<path fill="#22427D" d="M130.768,103.161c-0.604-0.198-1.076-0.632-1.291-1.188c-0.102-0.266-0.209-0.525-0.319-0.787
		c-0.236-0.545-0.209-1.183,0.073-1.746c1.201-2.375,0.744-5.238-1.141-7.121l-1.09-1.09V17.999c0-3.309-2.691-6-6-6H17
		c-3.309,0-6,2.691-6,6v84c0,3.31,2.691,6,6,6h66.083c-0.053,0.328-0.084,0.664-0.084,1.004v1.992c0,2.661,1.701,5.01,4.231,5.842
		c0.604,0.198,1.076,0.632,1.291,1.188c0.104,0.265,0.209,0.525,0.322,0.785c0.236,0.547,0.207,1.184-0.076,1.746
		c-1.201,2.375-0.744,5.239,1.142,7.121l1.407,1.41c1.884,1.885,4.744,2.34,7.121,1.141c0.564-0.285,1.199-0.313,1.748-0.074
		c0.258,0.109,0.521,0.22,0.779,0.32c0.561,0.217,0.994,0.689,1.193,1.295c0.834,2.528,3.182,4.229,5.844,4.229h1.992
		c2.66,0,5.01-1.7,5.842-4.231c0.197-0.604,0.631-1.076,1.188-1.291c0.265-0.104,0.525-0.209,0.785-0.322
		c0.543-0.237,1.185-0.209,1.746,0.076c2.375,1.199,5.24,0.742,7.121-1.142l1.41-1.407c1.885-1.883,2.342-4.746,1.141-7.121
		c-0.285-0.563-0.313-1.199-0.076-1.748c0.111-0.26,0.222-0.521,0.322-0.779c0.217-0.563,0.689-0.994,1.295-1.191
		c2.529-0.835,4.23-3.183,4.23-5.845v-1.992C135,106.342,133.301,103.993,130.768,103.161L130.768,103.161z M15,17.999
		c0-1.102,0.898-2,2-2h104c1.102,0,2,0.898,2,2v18H15V17.999z M17,103.999c-1.102,0-2-0.897-2-2v-62h108v49.157
		c-1.156-0.125-2.348,0.061-3.441,0.611c-0.563,0.287-1.196,0.313-1.748,0.076c-0.256-0.111-0.518-0.219-0.778-0.322
		c-0.56-0.215-0.994-0.688-1.191-1.295c-0.832-2.527-3.18-4.229-5.842-4.229h-1.992c-2.662,0-5.01,1.699-5.842,4.23
		c-0.199,0.604-0.633,1.076-1.192,1.291c-0.263,0.104-0.521,0.209-0.781,0.322c-0.545,0.236-1.183,0.211-1.746-0.076
		c-2.377-1.201-5.238-0.744-7.121,1.143l-1.408,1.406c-1.883,1.883-2.342,4.746-1.141,7.121c0.287,0.564,0.313,1.201,0.076,1.748
		c-0.111,0.26-0.222,0.521-0.322,0.78c-0.215,0.56-0.689,0.994-1.295,1.192c-0.603,0.197-1.15,0.486-1.646,0.838H17V103.999z
		 M131,110.995c0,0.931-0.594,1.75-1.48,2.042c-1.744,0.57-3.119,1.863-3.77,3.544c-0.084,0.214-0.172,0.429-0.262,0.636
		c-0.715,1.641-0.65,3.516,0.174,5.146c0.42,0.828,0.26,1.828-0.398,2.486l-1.41,1.41c-0.66,0.659-1.66,0.817-2.485,0.396
		c-1.629-0.823-3.509-0.885-5.146-0.174c-0.209,0.09-0.424,0.179-0.641,0.265c-1.68,0.651-2.969,2.028-3.543,3.772
		c-0.289,0.885-1.111,1.479-2.041,1.479h-1.992c-0.93,0-1.75-0.595-2.043-1.479c-0.572-1.744-1.863-3.119-3.543-3.771
		c-0.215-0.084-0.428-0.172-0.637-0.262c-0.758-0.33-1.563-0.494-2.371-0.494c-0.947,0-1.896,0.225-2.773,0.666
		c-0.832,0.42-1.828,0.26-2.486-0.398l-1.409-1.41c-0.658-0.656-0.818-1.656-0.398-2.486c0.824-1.629,0.888-3.504,0.175-5.143
		c-0.091-0.211-0.179-0.425-0.265-0.643c-0.651-1.68-2.026-2.971-3.772-3.542c-0.885-0.288-1.479-1.11-1.479-2.04v-1.992
		c0-0.93,0.595-1.75,1.479-2.042c1.746-0.569,3.121-1.862,3.772-3.544c0.084-0.214,0.172-0.428,0.263-0.637
		c0.713-1.641,0.649-3.516-0.175-5.145c-0.42-0.83-0.26-1.832,0.398-2.49l1.407-1.406c0.656-0.66,1.656-0.82,2.488-0.398
		c1.631,0.824,3.508,0.889,5.146,0.176c0.211-0.094,0.426-0.182,0.639-0.264c1.679-0.652,2.972-2.027,3.545-3.771
		c0.289-0.889,1.111-1.48,2.041-1.48h1.992c0.93,0,1.75,0.594,2.043,1.48c0.574,1.744,1.863,3.119,3.541,3.771
		c0.215,0.084,0.428,0.173,0.64,0.263c1.635,0.713,3.514,0.647,5.145-0.174c0.826-0.423,1.828-0.261,2.488,0.396l1.407,1.408
		c0.658,0.656,0.818,1.66,0.398,2.488c-0.824,1.631-0.888,3.506-0.175,5.143c0.091,0.211,0.179,0.426,0.265,0.644
		c0.651,1.679,2.026,2.968,3.772,3.542c0.886,0.29,1.479,1.111,1.479,2.042v1.991L131,110.995L131,110.995z"/>
	<path fill="#22427D" d="M19,31.999h12v-12H19V31.999z M23,23.999h4v4h-4V23.999z"/>
	<path fill="#22427D" d="M35,31.999h12v-12H35V31.999z M39,23.999h4v4h-4V23.999z"/>
	<path fill="#22427D" d="M51,31.999h12v-12H51V31.999z M55,23.999h4v4h-4V23.999z"/>
	<path fill="#22427D" d="M81,43.999H25c-3.309,0-6,2.691-6,6v32c0,3.31,2.691,6,6,6h29.395l10.722,7.147
		c0.838,0.559,1.81,0.853,2.813,0.853c2.797,0,5.07-2.272,5.07-5.069v-2.931h8c3.309,0,6-2.69,6-6v-32
		C87,46.69,84.309,43.999,81,43.999z M83,81.999c0,1.103-0.898,2-2,2H69v6.931c0,0.801-0.998,1.332-1.664,0.891L55.606,84H25
		c-1.102,0-2-0.896-2-2V50c0-1.103,0.898-2,2-2h56c1.102,0,2,0.897,2,2V81.999z"/>
	<path fill="#22427D" d="M23,95.999h4v4h-4V95.999z"/>
	<path fill="#22427D" d="M31,95.999h4v4h-4V95.999z"/>
	<path fill="#22427D" d="M39,95.999h4v4h-4V95.999z"/>
	<path fill="#22427D" d="M47,95.999h4v4h-4V95.999z"/>
	<path fill="#22427D" d="M31,59.999c0,2.206-1.794,4-4,4v4c2.206,0,4,1.794,4,4c0,4.412,3.588,8,8,8v-4c-2.206,0-4-1.794-4-4
		c0-2.4-1.084-4.532-2.764-6c1.68-1.468,2.764-3.6,2.764-6c0-2.206,1.794-4,4-4v-4C34.588,51.999,31,55.587,31,59.999z"/>
	<path fill="#22427D" d="M75,59.999c0-4.412-3.587-8-8-8v4c2.206,0,4,1.794,4,4c0,2.4,1.083,4.532,2.763,6
		c-1.68,1.468-2.763,3.6-2.763,6c0,2.206-1.794,4-4,4v4c4.412,0,8-3.588,8-8c0-2.206,1.795-4,4-4v-4
		C76.795,63.999,75,62.205,75,59.999z"/>
	<path fill="#22427D" d="M43,51.999h20v4H43V51.999z"/>
	<path fill="#22427D" d="M43,59.999h20v4H43V59.999z"/>
	<path fill="#22427D" d="M43,67.999h4v4h-4V67.999z"/>
	<path fill="#22427D" d="M51,67.999h12v4H51V67.999z"/>
	<path fill="#22427D" d="M43,75.999h20v4H43V75.999z"/>
	<path fill="#22427D" d="M91,51.999h4v4h-4V51.999z"/>
	<path fill="#22427D" d="M99,51.999h20v4H99V51.999z"/>
	<path fill="#22427D" d="M91,59.999h28v4H91V59.999z"/>
	<path fill="#22427D" d="M91,67.999h8v4h-8V67.999z"/>
	<path fill="#22427D" d="M103,67.999h4v4h-4V67.999z"/>
	<path fill="#22427D" d="M111,67.999h8v4h-8V67.999z"/>
	<path fill="#22427D" d="M91,75.999h28v4H91V75.999z"/>
	<path fill="#22427D" d="M91,43.999h28v4H91V43.999z"/>
</g>
</svg>
