<?xml version="1.0" encoding="utf-8"?>
<!-- Generator: Adobe Illustrator 16.0.0, SVG Export Plug-In . SVG Version: 6.00 Build 0)  -->
<!DOCTYPE svg PUBLIC "-//W3C//DTD SVG 1.1//EN" "http://www.w3.org/Graphics/SVG/1.1/DTD/svg11.dtd">
<svg version="1.1" id="Layer_1" xmlns="http://www.w3.org/2000/svg" xmlns:xlink="http://www.w3.org/1999/xlink" x="0px" y="0px"
	 width="142px" height="142px" viewBox="0 0 142 142" enable-background="new 0 0 142 142" xml:space="preserve">
<g id="Page-1">
	<g id="_x30_57---Design-Ad-Website" transform="translate(-1)">
		<path id="Shape" fill="#22427D" d="M24.302,106.331h28.941l-3.533,7.065h-5.976c-2.928,0-5.301,2.373-5.301,5.301
			s2.373,5.301,5.301,5.301h49.467c2.927,0,5.3-2.373,5.3-5.301s-2.373-5.301-5.3-5.301h-5.975l-3.533-7.065h28.939
			c3.012-0.099,5.379-2.604,5.301-5.618V37.721l1.689-1.689l0.016-0.021l3.795-3.791c2.088-2.094,2.088-5.479,0-7.573l-5.078-5.078
			c-2.095-2.088-5.481-2.088-7.574,0l-3.791,3.793l-0.021,0.016l-1.688,1.689H24.302c-3.012,0.097-5.379,2.606-5.3,5.619v70.029
			C18.923,103.727,21.29,106.232,24.302,106.331z M94.968,118.697c0,0.977-0.791,1.768-1.767,1.768H43.734
			c-0.977,0-1.768-0.791-1.768-1.768s0.791-1.768,1.768-1.768h49.467C94.177,116.932,94.968,117.723,94.968,118.697z
			 M83.275,113.396H53.66l3.533-7.065h22.55L83.275,113.396z M91.201,45.625l6.17,6.167l-9.461,3.275L91.201,45.625z M98.035,47.462
			L113.297,32.2l2.581,2.581l-15.257,15.262L98.035,47.462z M113.279,22.062c0.342-0.343,0.806-0.535,1.289-0.535
			c0.481,0,0.947,0.192,1.287,0.535l5.082,5.08c0.711,0.713,0.711,1.866,0,2.578l-2.563,2.561l-7.656-7.653L113.279,22.062z
			 M108.218,27.121l2.581,2.581L95.537,44.964l-2.581-2.586L108.218,27.121z M24.302,28.599h77.443L89.201,41.142
			c-0.186,0.191-0.324,0.424-0.406,0.679h-0.012l-4.219,12.097c-0.383,1.081-0.22,2.281,0.442,3.219
			c0.661,0.938,1.736,1.495,2.886,1.496c0.407,0,0.813-0.068,1.199-0.205l12.098-4.212v-0.012c0.254-0.082,0.485-0.222,0.679-0.406
			l12.544-12.544v50.945H36.668c-0.977,0-1.768,0.791-1.768,1.768s0.791,1.768,1.768,1.768H114.4v4.98
			c0.065,1.057-0.713,1.977-1.768,2.086H24.301c-1.053-0.109-1.833-1.029-1.767-2.086v-4.98H29.6c0.977,0,1.768-0.791,1.768-1.768
			s-0.791-1.768-1.768-1.768h-7.065V30.683C22.469,29.626,23.249,28.706,24.302,28.599L24.302,28.599z"/>
		<path id="Shape_1_" fill="#22427D" d="M31.368,56.864h42.399c2.928,0,5.299-2.373,5.299-5.301V37.431
			c0-2.928-2.371-5.301-5.299-5.301H31.368c-2.927,0-5.3,2.373-5.3,5.301v14.133C26.068,54.491,28.441,56.864,31.368,56.864z
			 M75.534,37.431v5.301h-5.3c-0.977,0-1.768-0.791-1.768-1.768v-5.3h5.302C74.743,35.664,75.534,36.455,75.534,37.431z
			 M29.602,37.431c0-0.976,0.791-1.767,1.768-1.767h33.566v5.3c0,2.928,2.373,5.301,5.301,5.301h5.299v5.301
			c0,0.976-0.791,1.767-1.769,1.767H31.369c-0.977,0-1.768-0.791-1.768-1.767L29.602,37.431L29.602,37.431z"/>
		<path id="Shape_2_" fill="#22427D" d="M54.335,60.397H31.368c-1.951,0-3.533,1.582-3.533,3.533v21.2
			c0,1.951,1.582,3.533,3.533,3.533h22.967c1.951,0,3.533-1.582,3.533-3.533V63.931C57.868,61.979,56.286,60.397,54.335,60.397z
			 M54.335,63.931v14.135H31.368V63.931H54.335z M31.368,85.131V81.6h22.967v3.531H31.368z"/>
		<path id="Shape_3_" fill="#22427D" d="M40.72,74.016c0.689,0.688,1.808,0.688,2.497,0l1.768-1.769
			c0.689-0.688,0.689-1.809,0-2.499l-1.768-1.767c-0.691-0.67-1.795-0.659-2.476,0.021c-0.683,0.683-0.691,1.784-0.021,2.478
			l0.52,0.518l-0.52,0.52C40.029,72.205,40.029,73.322,40.72,74.016z"/>
		<path id="Shape_4_" fill="#22427D" d="M61.4,63.931c0,0.977,0.791,1.768,1.768,1.768h45.934c0.978,0,1.769-0.791,1.769-1.768
			c0-0.976-0.791-1.767-1.769-1.767H63.168C62.191,62.164,61.4,62.955,61.4,63.931z"/>
		<path id="Shape_5_" fill="#22427D" d="M109.102,69.229h-7.065c-0.978,0-1.769,0.791-1.769,1.768c0,0.978,0.791,1.769,1.769,1.769
			h7.065c0.978,0,1.769-0.791,1.769-1.769C110.868,70.021,110.077,69.229,109.102,69.229z"/>
		<path id="Shape_6_" fill="#22427D" d="M63.168,72.766h31.8c0.976,0,1.767-0.791,1.767-1.769c0-0.977-0.791-1.768-1.767-1.768
			h-31.8c-0.977,0-1.768,0.791-1.768,1.768C61.4,71.975,62.191,72.766,63.168,72.766z"/>
		<path id="Shape_7_" fill="#22427D" d="M109.102,76.298H75.535c-0.977,0-1.768,0.791-1.768,1.769c0,0.976,0.791,1.767,1.768,1.767
			h33.566c0.977,0,1.768-0.791,1.768-1.767C110.869,77.089,110.077,76.298,109.102,76.298z"/>
		<path id="Shape_8_" fill="#22427D" d="M63.168,79.831h5.3c0.979,0,1.77-0.791,1.77-1.769c0-0.976-0.791-1.767-1.77-1.767h-5.3
			c-0.977,0-1.768,0.791-1.768,1.767C61.4,79.04,62.191,79.831,63.168,79.831z"/>
		<path id="Shape_9_" fill="#22427D" d="M86.135,83.363H63.168c-0.977,0-1.768,0.791-1.768,1.768s0.791,1.768,1.768,1.768h22.967
			c0.977,0,1.768-0.791,1.768-1.768S87.109,83.363,86.135,83.363z"/>
	</g>
</g>
</svg>
