<svg xmlns="http://www.w3.org/2000/svg" width="279" height="209" viewBox="0 0 279 209">
    <g fill="none" fill-rule="nonzero">
        <g fill="#FFF" transform="translate(54 32)">
            <path d="M46 20v4H4v88h56V93h4v19a4 4 0 0 1-4 4H4a4 4 0 0 1-4-4V24a4 4 0 0 1 4-4h42z"/>
            <path d="M108 22h-4V4H48v88h42v4H48a4 4 0 0 1-4-4V4a4 4 0 0 1 4-4h56a4 4 0 0 1 4 4v18z"/>
            <path d="M92 24v116h75V24H92zm0-4h75a4 4 0 0 1 4 4v116a4 4 0 0 1-4 4H92a4 4 0 0 1-4-4V24a4 4 0 0 1 4-4zM18 49a1 1 0 0 0-1 1v12a1 1 0 0 0 1 1h12a1 1 0 0 0 1-1V50a1 1 0 0 0-1-1H18zm0-3h12a4 4 0 0 1 4 4v12a4 4 0 0 1-4 4H18a4 4 0 0 1-4-4V50a4 4 0 0 1 4-4z"/>
            <path d="M115 44c-6.627 0-12 5.373-12 12s5.373 12 12 12 12-5.373 12-12-5.373-12-12-12zm0-3c8.284 0 15 6.716 15 15 0 8.284-6.716 15-15 15-8.284 0-15-6.716-15-15 0-8.284 6.716-15 15-15zM59 42h17.238l-8.322-11.888L59 42zm20.797-.147A2 2 0 0 1 78.16 45H57a2 2 0 0 1-1.6-3.2l10.944-14.592a2 2 0 0 1 3.239.053l10.214 14.592z"/>
            <rect width="59" height="4" x="100" y="83" rx="2"/>
            <rect width="59" height="4" x="100" y="95" rx="2"/>
            <rect width="30" height="4" x="100" y="107" rx="2"/>
        </g>
    </g>
</svg>
